<svg width="194" height="71" viewBox="0 0 194 71" fill="none" xmlns="http://www.w3.org/2000/svg">
<path d="M37.4505 7.28882C39.3483 6.63131 42.1416 7.15341 43.6753 8.45214L47.3864 11.5945L56.3421 15.1181C58.2662 15.8747 60.1016 18.1519 60.4322 20.1924L60.8913 23.0322L60.9462 23.0788C62.4799 24.3775 63.4556 27.0458 63.1213 29.0273L62.4767 32.8372L64.0544 42.5935C64.3859 44.6387 63.3248 47.3371 61.689 48.6071L59.5253 50.2879L59.4439 50.772C59.1084 52.7577 57.2882 54.9068 55.3849 55.5648L50.6179 57.2128L43.7726 62.5351C42.2902 63.6873 39.7262 64.1555 37.8057 63.6239L37.8052 63.6258C37.6381 63.5795 37.475 63.5255 37.3226 63.4658L35.085 62.5847L34.5433 62.7732C32.644 63.4294 29.8515 62.9074 28.3178 61.6087L24.6021 58.461L15.6506 54.9406C13.7265 54.1838 11.892 51.907 11.5614 49.8665L11.1028 47.0289L11.0469 46.982C9.51322 45.6832 8.53758 43.0153 8.87345 41.035L9.51761 37.2229L7.93978 27.4636C7.60833 25.4184 8.67119 22.7215 10.3049 21.4509L12.4679 19.7689L12.5489 19.2897C12.8831 17.3055 14.7046 15.155 16.608 14.497L21.3675 12.85L28.2213 7.52288C29.7037 6.37063 32.2699 5.90196 34.1884 6.43318C34.3556 6.47948 34.5186 6.53339 34.6711 6.59317L36.9118 7.47405L37.4505 7.28882ZM28.6838 61.176C30.0342 62.3196 32.5654 62.8049 34.2671 62.263L26.2385 59.1056L28.6838 61.176ZM35.9341 62.2919L37.5341 62.9214C37.6688 62.9741 37.812 63.0227 37.9608 63.0639C39.7201 63.5509 42.0633 63.1263 43.4143 62.0762L48.9091 57.8036L35.9341 62.2919ZM24.8547 57.9331L35.1219 61.9718L38.8769 60.6738C37.7826 60.9514 36.5207 60.9618 35.438 60.662C35.1069 60.5701 34.7996 60.4514 34.5252 60.3099L16.739 51.0611L24.8547 57.9331ZM12.1369 49.7715C12.4339 51.6008 14.1387 53.7193 15.863 54.3965L23.2181 57.2894L11.7864 47.6083L12.1369 49.7715ZM37.5909 59.1301C36.6522 59.585 35.3466 59.721 34.1211 59.515L34.7633 59.8489C35.0056 59.9756 35.2804 60.0812 35.578 60.1637C37.0571 60.5732 38.8938 60.3602 40.0429 59.647L52.5203 51.8907L37.5909 59.1301ZM35.1125 57.9585C34.1903 58.2908 32.9545 58.3002 31.8075 57.9827L31.8053 57.9831L32.3689 58.356C32.7181 58.5863 33.1386 58.7708 33.6177 58.9034C34.9001 59.2584 36.3762 59.174 37.3776 58.6891L49.9229 52.6053L35.1125 57.9585ZM59.5083 46.997C59.0264 48.0045 58.2972 48.9074 57.4577 49.4296L40.3145 60.086C40.1608 60.1816 39.9954 60.2676 39.8217 60.3467L50.2974 56.7238L59.0092 49.9525L59.5083 46.997ZM13.5191 45.8558C13.6105 47.5004 14.9242 49.5322 16.3864 50.2926L29.9406 57.3401L15.6821 47.9139C14.6945 47.2602 13.865 46.0373 13.4589 44.7741L13.5191 45.8558ZM32.8819 56.6092C32.1494 56.7907 31.2549 56.7545 30.3636 56.5077L30.3665 56.5045C30.1561 56.4462 29.9524 56.3762 29.7557 56.2989L30.2531 56.7092C30.6847 57.065 31.2658 57.3493 31.9299 57.5332C32.9891 57.8264 34.1183 57.8232 34.9522 57.5199L47.3757 53.0288L32.8819 56.6092ZM13.6874 43.0266C13.6102 44.5896 14.6493 46.641 15.9556 47.5043L28.0514 55.5007L15.5254 45.1863C14.6587 44.4724 13.9971 43.2386 13.7375 42.0079L13.6874 43.0266ZM30.9146 55.1069C30.3742 55.1812 29.7554 55.1294 29.1218 54.954L29.1224 54.9521C28.7263 54.8424 28.3425 54.6892 27.9879 54.5042L28.418 54.9415C28.909 55.4391 29.6413 55.8436 30.4848 56.0772C31.3285 56.3108 32.1184 56.3387 32.7779 56.1761L44.9768 53.1621L30.9146 55.1069ZM29.1989 53.4939C28.8321 53.5053 28.4396 53.4538 28.0295 53.3403C27.4912 53.1912 26.9648 52.9443 26.5005 52.6372L26.8599 53.0884C27.371 53.7291 28.2584 54.2731 29.2336 54.5431C29.8116 54.7031 30.3709 54.7533 30.8539 54.6858L42.646 53.0527L29.1989 53.4939ZM14.1248 40.3713C13.8966 41.841 14.6736 43.8817 15.8216 44.8265L26.4514 53.5792L15.6461 42.5952C14.8987 41.8347 14.3953 40.6025 14.2726 39.4131L14.1248 40.3713ZM27.7399 51.7989C27.5269 51.783 27.3023 51.7425 27.0757 51.6798C26.4391 51.5034 25.8071 51.1578 25.2794 50.7234L25.5742 51.185C26.0716 51.9639 27.08 52.6579 28.1411 52.9517C28.513 53.0546 28.8657 53.1009 29.191 53.0904L40.5112 52.7189L27.7399 51.7989ZM10.0995 37.1743L11.6474 46.7491L14.0886 48.8163C13.4722 47.9052 13.0567 46.8483 13.0033 45.8852L11.9203 26.4014L10.0995 37.1743ZM14.8019 37.9039C14.4404 39.269 14.9746 41.2754 15.9636 42.2829L25.1553 51.6254L16.0223 40.157C15.3886 39.362 15.0345 38.1418 15.0395 37.002L14.8019 37.9039ZM26.5364 50.0521C26.4466 50.0354 26.355 50.0161 26.2636 49.9907L26.2612 49.9921C25.5601 49.7979 24.854 49.3469 24.3042 48.7855L24.5411 49.2584C24.993 50.1645 26.0764 51.01 27.1759 51.3144C27.3799 51.3709 27.5798 51.4054 27.7686 51.4208L38.5708 52.1989L26.5364 50.0521ZM9.43119 41.1286C9.16611 42.6956 9.84315 44.8133 10.9507 46.089L9.79712 38.9581L9.43119 41.1286ZM15.6863 35.6398C15.2094 36.8948 15.5132 38.8403 16.35 39.892L24.0848 49.6033L16.6121 37.8914C16.0942 37.0787 15.8818 35.8954 15.9968 34.8219L15.6863 35.6398ZM23.7599 47.3367C24.1323 48.3296 25.2714 49.3439 26.3555 49.6443C26.4356 49.6665 26.5173 49.6852 26.5958 49.6987L36.6855 51.4985L25.5656 48.2846C24.8432 48.0757 24.109 47.526 23.5803 46.8583L23.7599 47.3367ZM52.0063 56.133L55.2008 55.0294C56.8561 54.457 58.4985 52.5454 58.8576 50.8073L52.0063 56.133ZM16.749 33.5913C16.175 34.7291 16.267 36.6001 16.954 37.674L23.2912 47.6062L17.3988 35.808C16.9908 34.9915 16.9077 33.8562 17.121 32.8553L16.749 33.5913ZM42.12 51.0476C41.5904 51.5814 40.7522 51.9501 39.9126 52.0739L40.4725 52.1742C41.6023 52.376 43.1659 51.792 43.8866 50.8964L50.7605 42.3455L42.12 51.0476ZM40.1937 50.7696C39.6455 51.2177 38.8175 51.4864 38.0086 51.5213L38.5508 51.6786C39.6139 51.9729 41.1054 51.5809 41.8779 50.8022L49.2313 43.3964L40.1937 50.7696ZM23.2162 45.4433C23.4904 46.5015 24.6104 47.6521 25.6609 47.9553L34.991 50.6503L24.8256 46.5182C24.1651 46.2493 23.5278 45.6569 23.0946 44.9749L23.2162 45.4433ZM38.4002 50.3155C37.8395 50.6819 37.0252 50.8586 36.2494 50.8082L36.7311 51.0044C36.8124 51.0372 36.8989 51.0671 36.9885 51.092C37.962 51.3615 39.2513 51.1145 39.9843 50.516L47.6611 44.2546L38.4002 50.3155ZM44.1714 51.1191C43.6694 51.7441 42.8263 52.2231 41.9558 52.4421L42.5686 52.4871C43.7752 52.5744 45.3467 51.7893 46.0021 50.7729L52.2719 41.0444L44.1714 51.1191ZM36.7503 49.7127C36.1915 50.0002 35.4108 50.0898 34.6798 49.9663L35.106 50.1947C35.2544 50.2749 35.4237 50.3405 35.605 50.3907C36.4789 50.6326 37.5564 50.4956 38.2267 50.0567L46.0796 44.9161L36.7503 49.7127ZM22.8859 43.5988C23.0412 44.6261 23.9836 45.8242 24.9458 46.216L33.5178 49.6982L24.3014 44.774C23.7029 44.4539 23.1588 43.8315 22.8173 43.144L22.8859 43.5988ZM46.3192 50.9782C45.8652 51.6818 45.0434 52.2728 44.1638 52.5995L44.8017 52.5795C46.0744 52.5393 47.6324 51.5429 48.206 50.4073L53.7138 39.5042L46.3192 50.9782ZM35.2506 48.9773C34.7004 49.1907 33.9621 49.2061 33.2769 49.0164L33.2775 49.0146C33.2731 49.0134 33.2689 49.0112 33.2645 49.01L33.6501 49.2718C33.8598 49.412 34.1099 49.5247 34.3961 49.604C35.1538 49.8138 36.026 49.7527 36.6155 49.4494L44.5636 45.3627L35.2506 48.9773ZM22.7612 41.8244C22.8048 42.8104 23.5772 44.0353 24.4471 44.5002L32.179 48.6303L23.9796 43.0778C23.4477 42.7168 22.9963 42.0761 22.7417 41.3934L22.7612 41.8244ZM48.5575 50.5908C48.1617 51.375 47.3706 52.0819 46.4889 52.5208L47.1398 52.4315C48.4668 52.2482 49.9908 51.0362 50.4654 49.7825L55.0102 37.8193L48.5575 50.5908ZM33.9071 48.1351C33.4649 48.2551 32.9241 48.2408 32.3859 48.0918L32.3864 48.0899C32.2613 48.0553 32.1403 48.0127 32.0235 47.9661L32.3652 48.2543C32.6203 48.4688 32.9602 48.6389 33.3515 48.7473C33.9793 48.9211 34.6521 48.9102 35.1469 48.7185L43.0682 45.6437L33.9071 48.1351ZM17.9522 31.7601C17.2962 32.7786 17.1993 34.5543 17.7395 35.6389L22.7641 45.7001L18.3514 33.9195C18.0457 33.1037 18.0804 32.0149 18.3859 31.0867L17.9522 31.7601ZM22.8169 40.1374C22.7611 41.0735 23.3692 42.3087 24.1445 42.8337L31.0587 47.5166L23.8437 41.4391C23.377 41.046 23.0143 40.397 22.8412 39.7277L22.8169 40.1374ZM32.723 47.2002C32.3897 47.2538 32.0091 47.2264 31.6217 47.1192L31.6198 47.1187C31.3869 47.0542 31.1615 46.9635 30.9536 46.8531L31.2533 47.1651C31.5389 47.4621 31.9663 47.7 32.4568 47.8358C32.9473 47.9716 33.4386 47.9861 33.8363 47.8783L41.6572 45.7516L32.723 47.2002ZM50.8621 49.938C50.5329 50.8054 49.7775 51.6367 48.8979 52.1938L49.5775 52.0264C50.9472 51.6885 52.4083 50.2495 52.7676 48.8859L56.2108 35.8586L50.8621 49.938ZM31.6972 46.2058C31.4654 46.2196 31.217 46.1894 30.9576 46.1176L30.9539 46.1165C30.6404 46.0297 30.3356 45.8847 30.0668 45.7047L30.3112 46.0186C30.6054 46.396 31.1185 46.7174 31.6854 46.8744C32.0384 46.9721 32.3831 46.9974 32.6798 46.9501L40.219 45.7272L31.6972 46.2058ZM23.0369 38.5487C22.8905 39.4267 23.3423 40.6536 24.0236 41.2285L30.0973 46.3445L23.8788 39.8813C23.4764 39.4626 23.1972 38.8117 23.1007 38.161L23.0369 38.5487ZM14.8071 21.0702C13.4095 21.9389 12.308 24.0594 12.3978 25.7017L13.2725 41.4293L14.1356 23.8502C14.1884 22.7675 14.7272 21.5709 15.5039 20.6359L14.8071 21.0702ZM19.2714 30.1504C18.5502 31.0481 18.2817 32.7165 18.6865 33.7924L22.437 43.8038L19.4338 32.2281C19.2264 31.4283 19.3658 30.4055 19.7449 29.5601L19.2714 30.1504ZM53.1949 49.0042C52.9464 49.9472 52.2491 50.8987 51.3909 51.578L52.0833 51.3279C53.4789 50.8225 54.8502 49.1574 55.0774 47.6913L57.2511 33.6641L53.1949 49.0042ZM30.8197 45.1593C30.6778 45.1528 30.5308 45.1269 30.3783 45.0847C30.0028 44.9804 29.6336 44.7742 29.3266 44.5169L29.5334 44.8497C29.8179 45.3066 30.3993 45.7147 31.0158 45.8854C31.2504 45.9504 31.4731 45.9774 31.6774 45.9663L38.9908 45.5554L30.8197 45.1593ZM23.4044 37.0677C23.1788 37.8827 23.4841 39.0879 24.0694 39.6979L29.3168 45.1525L24.0668 38.4083C23.7292 37.9743 23.53 37.3339 23.5023 36.7107L23.4044 37.0677ZM41.5516 25.1937C41.4162 25.1562 41.2847 25.1347 41.1611 25.1291L32.2872 24.6986C31.5635 24.6626 30.6123 25.145 30.2146 25.75L25.1902 33.3559C24.7907 33.9605 24.7205 35.0238 25.037 35.6765L28.9173 43.6678C29.1735 44.197 29.8007 44.6917 30.442 44.8693C30.5775 44.9068 30.7096 44.9286 30.8334 44.9341L39.707 45.3656C40.4306 45.4014 41.3819 44.919 41.7796 44.3142L46.804 36.7083C47.2036 36.1037 47.274 35.0395 46.9574 34.3867L43.0772 26.3954C42.8191 25.8656 42.1929 25.3713 41.5516 25.1937ZM23.8951 35.7018C23.6016 36.4508 23.77 37.6171 24.2643 38.2512L28.6548 43.8911L24.3903 37.0387C24.1128 36.5907 23.9884 35.9597 24.0271 35.3645L23.8951 35.7018ZM20.6801 28.7591C19.9106 29.5345 19.492 31.0856 19.7662 32.1438L22.3123 41.9595L20.6272 30.7396C20.5105 29.9627 20.7442 29.0087 21.1877 28.2471L20.6801 28.7591ZM55.5409 47.7629C55.3836 48.7817 54.7544 49.8577 53.927 50.664L54.6326 50.3223C56.0379 49.6408 57.2906 47.7454 57.3668 46.1862L58.0993 31.2522L55.5409 47.7629ZM17.3639 19.7374C15.9586 20.4189 14.7051 22.3141 14.6282 23.8752L13.895 38.7968L16.4525 22.2969C16.6094 21.2802 17.2355 20.2051 18.0604 19.3993L17.3639 19.7374ZM24.497 34.4651C24.1452 35.1424 24.188 36.262 24.5916 36.912L28.1876 42.6876L24.8308 35.7735C24.6134 35.3247 24.5596 34.7193 24.6536 34.1629L24.497 34.4651ZM41.9696 44.4367C41.6654 44.8973 41.094 45.2829 40.505 45.47L41.0153 45.4421C41.7775 45.3983 42.7188 44.7896 43.0707 44.1123L46.333 37.8313L41.9696 44.4367ZM22.1483 27.5849C21.3438 28.2416 20.7936 29.6635 20.9469 30.6903L22.3787 40.2269L21.9002 29.4506C21.8668 28.7049 22.1838 27.8271 22.6788 27.1511L22.1483 27.5849ZM43.2899 44.2247C43.0267 44.732 42.4847 45.1911 41.8997 45.4539L42.3959 45.3745C43.1901 45.2451 44.109 44.5045 44.4022 43.7575L47.1057 36.8739L43.2899 44.2247ZM57.8559 46.2091C57.8029 47.2943 57.2604 48.4919 56.4813 49.4278L57.186 48.9906C58.5835 48.122 59.6873 46.0009 59.5951 44.3601L58.7186 28.6168L57.8559 46.2091ZM44.6389 43.8504C44.4158 44.4181 43.8869 44.9678 43.2932 45.3068L43.8345 45.1598C44.6502 44.9376 45.5299 44.0616 45.7555 43.2466L47.8431 35.6929L44.6389 43.8504ZM59.6691 49.4391L61.3307 48.1482C62.7907 47.0138 63.7753 44.5113 63.4794 42.6866L62.1755 34.6203L59.6691 49.4391ZM10.6632 21.9098C9.20329 23.0442 8.21797 25.5455 8.51383 27.3702L9.81883 35.4398L12.3241 20.6177L10.6632 21.9098ZM46.0139 43.3161C45.8433 43.9325 45.354 44.561 44.7737 44.9811L45.3149 44.7722C46.146 44.4495 46.969 43.4362 47.1155 42.5582L48.4692 34.4273L46.0139 43.3161ZM19.9098 18.7329C18.5142 19.2383 17.1429 20.9034 16.9157 22.3695L14.7392 36.4031L18.7954 21.063C19.0463 20.1155 19.7472 19.1585 20.6094 18.4787L19.9098 18.7329ZM23.6524 26.6212C22.8267 27.1612 22.1653 28.4516 22.2111 29.4364L22.6166 38.5772L23.2345 28.3609C23.2771 27.6524 23.6634 26.8533 24.1982 26.2637L23.6524 26.6212ZM47.3936 42.6007C47.2835 43.2644 46.8406 43.9772 46.2791 44.4809L46.8259 44.2006C47.6597 43.7718 48.4126 42.6194 48.4683 41.6834L48.9921 33.0035L47.3936 42.6007ZM25.17 25.861C24.3362 26.2897 23.5833 27.4421 23.5276 28.3782L23.0039 37.0358L24.5996 27.4601C24.7094 26.7986 25.149 26.0876 25.7077 25.5843L25.17 25.861ZM48.7607 41.7036C48.7183 42.4061 48.3364 43.1966 47.8085 43.7847L48.3391 43.4381C49.1648 42.8982 49.8262 41.6077 49.7822 40.6235L49.3765 31.4947L48.7607 41.7036ZM22.4163 18.0357C21.0465 18.3736 19.5858 19.8105 19.2248 21.1738L15.7705 34.2415L21.1357 20.1242C21.4656 19.2549 22.2213 18.4224 23.1017 17.8657L22.4163 18.0357ZM50.0951 40.6098C50.1282 41.3527 49.8127 42.2256 49.321 42.9004L49.843 42.4754C50.6475 41.8187 51.1977 40.3968 51.0425 39.3694L49.6182 29.8937L50.0951 40.6098ZM26.6772 25.2923C25.846 25.615 25.0226 26.6302 24.876 27.5083L23.5186 35.6563L25.9798 26.7499C26.1509 26.1317 26.6411 25.499 27.2237 25.0789L26.6772 25.2923ZM51.3678 39.3217C51.4842 40.0963 51.2503 41.0463 50.8094 41.8067L51.3135 41.2999C52.0834 40.5225 52.5021 38.9744 52.2281 37.9163L49.6811 28.0963L51.3678 39.3217ZM28.1566 24.9045C27.341 25.1268 26.461 26.0037 26.2353 26.8186L24.1497 34.3689L27.3564 26.21C27.578 25.6457 28.1012 25.0981 28.6905 24.7585L28.1566 24.9045ZM24.853 17.6231C23.5261 17.8065 22.0024 19.0206 21.5265 20.2719L16.9732 32.251L23.4306 19.4737C23.83 18.6822 24.6307 17.9677 25.5223 17.5298L24.853 17.6231ZM57.8934 21.2333C58.5144 22.1475 58.9338 23.2096 58.9877 24.176L60.0712 43.6651L61.8941 32.8846L60.3462 23.3099L57.8934 21.2333ZM29.5946 24.6846C28.8012 24.8123 27.8828 25.5542 27.5896 26.3009L24.8533 33.2626L28.7105 25.8392C28.9769 25.3256 29.528 24.8595 30.1211 24.5983L29.5946 24.6846ZM52.5588 37.8346C52.7655 38.6312 52.6262 39.6487 52.2505 40.4923L52.7198 39.9099C53.4409 39.0121 53.7096 37.3437 53.3047 36.2679L49.5582 26.2677L52.5588 37.8346ZM27.1972 17.4788C25.9257 17.5213 24.3652 18.5159 23.7917 19.6517L18.3119 30.4978L25.669 19.0823C26.124 18.3768 26.9482 17.7837 27.8303 17.4575L27.1972 17.4788ZM30.9757 24.6191C30.2134 24.6629 29.2722 25.2716 28.9203 25.9489L25.6523 32.2395L30.0238 25.6232C30.3269 25.164 30.8949 24.778 31.4813 24.5899L30.9757 24.6191ZM53.6466 36.1386C53.9511 36.9513 53.9172 38.0351 53.6149 38.961L54.0409 38.3008C54.6968 37.2822 54.7938 35.5065 54.2536 34.4219L49.2536 24.4111L53.6466 36.1386ZM29.4227 17.5732C28.2159 17.4856 26.6443 18.2718 25.9907 19.2889L19.7151 29.0239L27.8258 18.9377C28.3252 18.316 29.1621 17.8368 30.0279 17.6161L29.4227 17.5732ZM47.1619 34.2852C47.3786 34.7326 47.4332 35.336 47.3404 35.8911L47.494 35.5962C47.8459 34.9189 47.8021 33.7991 47.3979 33.1508L43.8132 27.3896L47.1619 34.2852ZM54.5903 34.2527C55.0017 35.0761 55.0833 36.2235 54.8632 37.2304L55.2487 36.4677C55.8227 35.3299 55.7306 33.459 55.0455 32.3856L48.6605 22.3773L54.5903 34.2527ZM31.5184 17.887C30.3886 17.6851 28.8246 18.271 28.1044 19.1649L21.2114 27.7368L29.8726 19.0151C30.4028 18.4808 31.242 18.1109 32.0824 17.9874L31.5184 17.887ZM47.6082 33.0246C47.8808 33.4649 48.0045 34.0816 47.972 34.6676L48.0945 34.357C48.3882 33.6081 48.2199 32.4409 47.7256 31.8067L43.3642 26.2043L47.6082 33.0246ZM33.4429 18.3804C32.3798 18.0861 30.8879 18.479 30.1155 19.2576L22.7403 26.6838L31.8029 19.2932C32.3562 18.8409 33.194 18.5697 34.0099 18.5394L33.4439 18.3766L33.4429 18.3804ZM47.9285 31.6521C48.2651 32.085 48.4634 32.7228 48.4915 33.3442L48.5876 32.9969C48.8131 32.1819 48.5076 30.9776 47.9205 30.3671L42.7274 24.9691L47.9285 31.6521ZM55.3762 32.1721C55.8936 32.9839 56.1055 34.1659 55.9913 35.2385L56.3047 34.4143C56.7814 33.1592 56.4778 31.2137 55.6428 30.1626L47.8449 20.3681L55.3762 32.1721ZM21.6877 13.3369L12.9841 20.1043L12.4865 23.0541C12.9685 22.0502 13.6965 21.1513 14.5336 20.6307L31.6765 9.97529C31.8315 9.87903 31.9979 9.79108 32.1731 9.71152L21.6877 13.3369ZM35.0008 18.9678C34.0277 18.6989 32.7396 18.9462 32.007 19.5443L24.3137 25.8174L33.5953 19.7439C34.153 19.3796 34.9619 19.2007 35.7349 19.2481L35.2574 19.0551C35.1763 19.0224 35.0902 18.9926 35.0008 18.9678ZM48.1149 30.1848C48.5156 30.6017 48.7937 31.2485 48.8913 31.8964L48.9544 31.5187C49.1009 30.6407 48.649 29.4139 47.9677 28.8389L41.9188 23.743L48.1149 30.1848ZM36.3865 19.6687C35.5124 19.4267 34.435 19.5636 33.7648 20.0027L25.8679 25.1706L35.2442 20.3505C35.8056 20.0617 36.5913 19.9717 37.3265 20.0982L36.8877 19.8642C36.7393 19.7841 36.5697 19.7194 36.3884 19.6692L36.3865 19.6687ZM55.9755 29.9051C56.6054 30.6954 56.9565 31.9063 56.9557 33.0402L57.1908 32.1548C57.5521 30.7897 57.0206 28.785 56.0298 27.777L46.8494 18.4448L55.9755 29.9051ZM37.5987 20.4583C36.8409 20.2485 35.969 20.3086 35.3795 20.6119L27.434 24.6963L36.7435 21.0838C37.2936 20.8706 38.0308 20.8567 38.7157 21.0463C38.7203 21.0475 38.7252 21.0489 38.7298 21.0502L38.3449 20.7896C38.1376 20.648 37.8866 20.5381 37.6005 20.4588L37.5987 20.4583ZM48.1495 28.6217C48.6171 29.0155 48.98 29.6666 49.1528 30.3374L49.1781 29.9239C49.2357 28.9884 48.6257 27.7527 47.8505 27.2277L40.9228 22.535L48.1495 28.6217ZM38.6411 21.3154C38.0132 21.1416 37.3403 21.1534 36.8449 21.347L28.9084 24.4257L38.0866 21.931C38.5288 21.811 39.0696 21.8252 39.6078 21.9742C39.7285 22.0077 39.8456 22.0472 39.9583 22.0916L39.6263 21.8122C39.3732 21.5982 39.0314 21.4275 38.6401 21.3192L38.6411 21.3154ZM39.535 22.2297C39.0427 22.0934 38.5534 22.0786 38.1558 22.1862L30.3726 24.3012L39.2725 22.8593C39.6058 22.8057 39.9865 22.833 40.3758 22.9408C40.6005 23.003 40.818 23.09 41.0197 23.1951L40.7364 22.9008C40.4508 22.604 40.023 22.3669 39.5326 22.2311L39.535 22.2297ZM16.7938 15.0298C15.138 15.6033 13.4958 17.5121 13.1356 19.2495L19.9831 13.9268L16.7938 15.0298ZM40.3061 23.185C39.953 23.0872 39.6092 23.0591 39.312 23.1083L31.7283 24.3381L40.3022 23.8577C40.5342 23.8439 40.7834 23.8734 41.043 23.9453C41.3538 24.0314 41.6557 24.1755 41.9231 24.3532L41.6787 24.0393C41.3845 23.6619 40.8705 23.3433 40.3037 23.1863L40.3061 23.185ZM40.9751 24.1758C40.7423 24.1113 40.519 24.084 40.3126 24.0947L33.0282 24.5035L41.1709 24.8998C41.3128 24.9063 41.4603 24.9303 41.6128 24.9725C41.9855 25.0757 42.3539 25.2807 42.6605 25.5362L42.4578 25.2106C42.1734 24.7538 41.591 24.3484 40.9727 24.1772L40.9751 24.1758ZM48.0148 26.9854C48.5458 27.3456 48.9956 27.9859 49.2505 28.6672L49.2322 28.2355C49.1888 27.2494 48.4163 26.0246 47.5463 25.5596L39.792 21.4152L48.0148 26.9854ZM56.3448 27.4701C57.0923 28.2306 57.5946 29.4627 57.7171 30.6529L57.8669 29.6912C58.095 28.2213 57.316 26.1811 56.1679 25.2364L45.5251 16.472L56.3448 27.4701ZM62.1956 31.1006L62.5631 28.9315C62.8283 27.3643 62.1508 25.2456 61.043 23.9699L62.1956 31.1006ZM47.6942 25.2855C48.2867 25.6027 48.8261 26.2186 49.1685 26.8995L49.1025 26.4607C48.949 25.4339 48.0048 24.2352 47.0427 23.8435L38.4927 20.3694L47.6942 25.2855ZM36.4148 9.89809C34.9356 9.4885 33.0991 9.7014 31.95 10.4148L19.4866 18.1607L34.4025 10.9297C35.3396 10.4756 36.6423 10.3376 37.8659 10.5421L37.2298 10.2119C36.9875 10.0853 36.7125 9.98052 36.4148 9.89809ZM56.4674 24.8755C57.3348 25.5906 57.9975 26.8276 58.2564 28.0612L58.3066 27.0344C58.3819 25.4709 57.3445 23.4209 56.0382 22.5577L43.9392 14.5584L56.4674 24.8755ZM47.1691 23.5441C47.8294 23.813 48.4675 24.4037 48.9006 25.0855L48.7779 24.6138C48.5036 23.5556 47.3836 22.4049 46.3333 22.1018L36.9315 19.3839L47.1691 23.5441ZM38.3776 11.157C37.095 10.8018 35.6183 10.886 34.6167 11.3711L22.082 17.4496L36.883 12.101C37.8039 11.7691 39.0376 11.7593 40.1833 12.0755L39.625 11.7061C39.2757 11.4758 38.8562 11.2915 38.3771 11.1589L38.3776 11.157ZM40.0632 12.5276C39.004 12.2344 37.8741 12.2404 37.0406 12.5418L24.5661 17.0492L39.1096 13.4572C39.842 13.2759 40.7355 13.3137 41.6265 13.5604C41.8361 13.6184 42.0421 13.689 42.2418 13.7682L41.7376 13.353C41.306 12.9972 40.7249 12.7129 40.0608 12.529L40.0632 12.5276ZM45.3952 20.3626L35.3145 18.5632L46.4275 21.7762C47.1482 21.9846 47.8803 22.5337 48.4086 23.1993L48.2304 22.7233C47.8578 21.7305 46.7166 20.7163 45.6346 20.4167C45.5546 20.3945 45.4735 20.3761 45.3952 20.3626ZM41.509 13.9848C40.6903 13.7582 39.8762 13.7236 39.2168 13.8862L27.0044 16.9015L41.0832 14.9552C41.6236 14.881 42.2422 14.9336 42.8757 15.1091C43.2693 15.2181 43.6508 15.3687 44.0035 15.5521L43.5756 15.1174C43.0865 14.6203 42.3507 14.2179 41.509 13.9848ZM56.3084 22.1452C57.297 22.7996 58.128 24.024 58.5337 25.2886L58.4737 24.206C58.3825 22.5613 57.069 20.5286 55.6068 19.7682L42.0519 12.7196L56.3084 22.1452ZM42.7613 15.5151C42.1829 15.355 41.6232 15.3046 41.1381 15.3717L29.2617 17.0128L42.7892 16.5706C43.1561 16.5592 43.5492 16.6108 43.9595 16.7245C44.5092 16.8767 45.0462 17.1304 45.5176 17.4467L45.1343 16.9646C44.6234 16.3238 43.7357 15.7809 42.7604 15.5108L42.7613 15.5151ZM43.8578 17.1067C43.4857 17.0036 43.1324 16.9572 42.8069 16.9677L31.4573 17.3391L44.2483 18.2616C44.4617 18.2775 44.6875 18.3173 44.9146 18.3802C45.5591 18.5587 46.1984 18.9098 46.7292 19.3508L46.4254 18.8745C45.928 18.0957 44.9207 17.4011 43.8596 17.1072L43.8578 17.1067ZM44.8151 18.7468C44.6109 18.6903 44.4104 18.6555 44.2215 18.6402L33.4713 17.8644L45.4608 20.0048C45.5507 20.0215 45.6421 20.0408 45.7337 20.0662C46.4305 20.2591 47.1325 20.7061 47.6812 21.2631L47.4497 20.7997C46.9978 19.8939 45.9148 19.0494 44.8156 18.7449L44.8151 18.7468ZM34.0331 6.99411C32.2736 6.50692 29.9278 6.93069 28.5767 7.98104L23.0709 12.2607L36.0645 7.76737L34.457 7.13579C34.3223 7.08315 34.1799 7.03474 34.0331 6.99411ZM60.2076 22.4527L59.8572 20.2855C59.5602 18.4564 57.8551 16.3388 56.1309 15.6615L48.7678 12.7644L60.2076 22.4527ZM33.1098 9.38823C34.2053 9.1094 35.4688 9.09807 36.5532 9.39834C36.8852 9.4903 37.1935 9.61022 37.4686 9.75212L55.2644 19.0067L47.1366 12.1232L36.8741 8.08579L33.1098 9.38823ZM43.3093 8.8848C41.9596 7.74181 39.4295 7.25466 37.7277 7.79524L45.7552 10.9533L43.3108 8.88318L43.3093 8.8848Z" fill="url(#paint0_radial_4301_62)"/>
<path d="M166.037 25.5743C167.442 25.5743 168.54 24.6063 168.54 23.3311V22.5586L166.13 22.7075C164.929 22.7913 164.249 23.3218 164.249 24.1595C164.249 25.0158 164.957 25.5743 166.037 25.5743ZM165.478 27.1659C163.561 27.1659 162.22 25.9745 162.22 24.2154C162.22 22.5027 163.533 21.451 165.86 21.3207L168.54 21.1624V20.4085C168.54 19.3195 167.805 18.6679 166.576 18.6679C165.413 18.6679 164.687 19.2264 164.51 20.1013H162.611C162.723 18.3329 164.231 17.0298 166.651 17.0298C169.024 17.0298 170.541 18.2863 170.541 20.2503V26.9984H168.615V25.3881H168.568C168 26.4771 166.763 27.1659 165.478 27.1659Z" fill="#001746"/>
<path d="M157.222 14.8892H159.242V17.2068H161.103V18.7984H159.242V24.1969C159.242 25.0439 159.614 25.4255 160.433 25.4255C160.638 25.4255 160.964 25.4069 161.094 25.379V26.9706C160.871 27.0265 160.424 27.0637 159.977 27.0637C157.995 27.0637 157.222 26.3098 157.222 24.4203V18.7984H155.798V17.2068H157.222V14.8892Z" fill="#001746"/>
<path d="M150.176 25.5743C151.582 25.5743 152.68 24.6063 152.68 23.3311V22.5586L150.269 22.7075C149.068 22.7913 148.389 23.3218 148.389 24.1595C148.389 25.0158 149.096 25.5743 150.176 25.5743ZM149.618 27.1659C147.7 27.1659 146.36 25.9745 146.36 24.2154C146.36 22.5027 147.672 21.451 149.999 21.3207L152.68 21.1624V20.4085C152.68 19.3195 151.945 18.6679 150.716 18.6679C149.552 18.6679 148.826 19.2264 148.65 20.1013H146.751C146.862 18.3329 148.37 17.0298 150.79 17.0298C153.164 17.0298 154.681 18.2863 154.681 20.2503V26.9984H152.754V25.3881H152.708C152.14 26.4771 150.902 27.1659 149.618 27.1659Z" fill="#001746"/>
<path d="M133.906 13.5674H138.644C142.637 13.5674 145.001 16.0246 145.001 20.2597C145.001 24.504 142.646 26.9985 138.644 26.9985H133.906V13.5674ZM135.991 15.3638V25.1928H138.448C141.296 25.1928 142.869 23.4522 142.869 20.2783C142.869 17.1136 141.287 15.3638 138.448 15.3638H135.991Z" fill="#001746"/>
<path d="M125.715 26.9985V13.5674H127.726V26.9985H125.715Z" fill="#001746"/>
<path d="M119.181 25.5743C120.587 25.5743 121.685 24.6063 121.685 23.3311V22.5586L119.274 22.7075C118.074 22.7913 117.394 23.3218 117.394 24.1595C117.394 25.0158 118.102 25.5743 119.181 25.5743ZM118.623 27.1659C116.705 27.1659 115.365 25.9745 115.365 24.2154C115.365 22.5027 116.678 21.451 119.004 21.3207L121.685 21.1624V20.4085C121.685 19.3195 120.95 18.6679 119.721 18.6679C118.558 18.6679 117.832 19.2264 117.655 20.1013H115.756C115.868 18.3329 117.376 17.0298 119.796 17.0298C122.169 17.0298 123.686 18.2863 123.686 20.2503V26.9984H121.76V25.3881H121.713C121.145 26.4771 119.907 27.1659 118.623 27.1659Z" fill="#001746"/>
<path d="M109.706 26.9983V17.2066H111.623V18.8727H111.67C111.996 17.7278 112.871 17.0483 114.025 17.0483C114.313 17.0483 114.565 17.0949 114.714 17.1228V18.9937C114.555 18.9285 114.202 18.882 113.811 18.882C112.517 18.882 111.717 19.7476 111.717 21.1344V26.9983H109.706Z" fill="#001746"/>
<path d="M104.168 14.8892H106.188V17.2068H108.049V18.7984H106.188V24.1969C106.188 25.0439 106.56 25.4255 107.379 25.4255C107.584 25.4255 107.91 25.4069 108.04 25.379V26.9706C107.817 27.0265 107.37 27.0637 106.923 27.0637C104.941 27.0637 104.168 26.3098 104.168 24.4203V18.7984H102.744V17.2068H104.168V14.8892Z" fill="#001746"/>
<path d="M93.1941 26.9984V17.2066H95.1115V18.8448H95.158C95.6886 17.7278 96.731 17.0391 98.2389 17.0391C100.398 17.0391 101.636 18.4166 101.636 20.6598V26.9984H99.6164V21.0507C99.6164 19.5801 98.9277 18.7703 97.5315 18.7703C96.1167 18.7703 95.2046 19.7755 95.2046 21.2927V26.9984H93.1941Z" fill="#001746"/>
<path d="M87.2185 18.6493C85.8131 18.6493 84.8265 19.7197 84.7241 21.1997H89.6199C89.5734 19.7011 88.624 18.6493 87.2185 18.6493ZM89.6106 24.1223H91.5187C91.2395 25.9094 89.5455 27.1845 87.3023 27.1845C84.4262 27.1845 82.6857 25.2392 82.6857 22.149C82.6857 19.0775 84.4541 17.0298 87.2185 17.0298C89.9364 17.0298 91.6304 18.9472 91.6304 21.9164V22.6051H84.7148V22.7261C84.7148 24.4294 85.7386 25.5557 87.3488 25.5557C88.4937 25.5557 89.3407 24.9786 89.6106 24.1223Z" fill="#001746"/>
<path d="M75.7793 27.2216C72.0096 27.2216 69.6268 24.5596 69.6268 20.278C69.6268 16.0244 72.0282 13.3438 75.7793 13.3438C78.8229 13.3438 81.1219 15.2146 81.4756 18.0162H79.4093C79.037 16.2943 77.6036 15.1681 75.7793 15.1681C73.3406 15.1681 71.7583 17.1692 71.7583 20.278C71.7583 23.4147 73.322 25.3973 75.7886 25.3973C77.6594 25.3973 78.9904 24.4386 79.4093 22.819H81.4849C80.973 25.5927 78.8694 27.2216 75.7793 27.2216Z" fill="#001746"/>
<path d="M185.327 38.4921C183.132 38.4921 181.555 40.1552 181.383 42.4528H189.185C189.082 40.1038 187.556 38.4921 185.327 38.4921ZM189.253 47.9394H193.848C193.3 51.5401 190.008 53.9576 185.464 53.9576C179.806 53.9576 176.411 50.3399 176.411 44.4588C176.411 38.595 179.84 34.7886 185.276 34.7886C190.625 34.7886 194.003 38.4063 194.003 43.9959V45.5219H181.332V45.8305C181.332 48.4538 182.995 50.2541 185.55 50.2541C187.384 50.2541 188.79 49.3454 189.253 47.9394Z" fill="#001746"/>
<path d="M164.718 49.6537C167.221 49.6537 168.816 47.6648 168.816 44.3385C168.816 41.0293 167.221 38.9032 164.718 38.9032C162.249 38.9032 160.688 40.995 160.688 44.3385C160.688 47.6991 162.232 49.6537 164.718 49.6537ZM164.632 60.4899C159.797 60.4899 156.522 58.1409 156.128 54.866H161.031C161.426 56.1348 162.866 57.0093 164.769 57.0093C167.358 57.0093 168.798 55.569 168.798 53.4429V50.2195H168.696C167.838 52.1741 165.678 53.5115 163.02 53.5115C158.528 53.5115 155.562 50.048 155.562 44.3042C155.562 38.4746 158.442 34.8911 163.106 34.8911C165.747 34.8911 167.821 36.2799 168.781 38.3889H168.867V35.1826H173.805V53.3058C173.805 57.6951 170.136 60.4899 164.632 60.4899Z" fill="#001746"/>
<path d="M144.091 50.237C146.269 50.237 148.069 48.8139 148.069 46.825V45.4876L144.194 45.7276C142.325 45.8648 141.262 46.7049 141.262 48.008C141.262 49.3797 142.394 50.237 144.091 50.237ZM142.445 53.8548C138.948 53.8548 136.29 51.5915 136.29 48.2824C136.29 44.9389 138.862 43.0014 143.44 42.7271L148.069 42.4528V41.2354C148.069 39.5208 146.869 38.5264 144.983 38.5264C143.114 38.5264 141.931 39.4522 141.691 40.8068H137.113C137.302 37.2404 140.336 34.7886 145.206 34.7886C149.921 34.7886 152.99 37.2233 152.99 40.9268V53.5633H148.155V50.7514H148.052C147.023 52.706 144.743 53.8548 142.445 53.8548Z" fill="#001746"/>
<path d="M124.648 53.5629V35.1826H129.483V38.4917H129.586C130.237 36.1599 131.798 34.8911 133.958 34.8911C134.541 34.8911 135.038 34.9768 135.381 35.0797V39.4862C134.97 39.3147 134.284 39.1947 133.564 39.1947C131.095 39.1947 129.655 40.7036 129.655 43.2926V53.5629H124.648Z" fill="#001746"/>
<path d="M112.954 53.9576C107.399 53.9576 103.85 50.3913 103.85 44.356C103.85 38.4063 107.451 34.7886 112.954 34.7886C118.458 34.7886 122.059 38.3892 122.059 44.356C122.059 50.4084 118.51 53.9576 112.954 53.9576ZM112.954 50.1341C115.406 50.1341 116.967 48.0595 116.967 44.3731C116.967 40.721 115.389 38.6121 112.954 38.6121C110.52 38.6121 108.925 40.721 108.925 44.3731C108.925 48.0595 110.485 50.1341 112.954 50.1341Z" fill="#001746"/>
<path d="M93.6482 30.9478H98.6548V35.1828H102.05V38.9549H98.6548V47.7507C98.6548 49.1566 99.3406 49.8253 100.815 49.8253C101.261 49.8253 101.724 49.791 102.033 49.7396V53.426C101.518 53.546 100.661 53.6317 99.6493 53.6317C95.3285 53.6317 93.6482 52.1915 93.6482 48.608V38.9549H91.0592V35.1828H93.6482V30.9478Z" fill="#001746"/>
<path d="M69.6268 46.5162H74.6163C74.8563 48.5566 76.9824 49.894 79.7257 49.894C82.4862 49.894 84.3723 48.5737 84.3723 46.7563C84.3723 45.1446 83.1892 44.253 80.2058 43.5843L76.9824 42.8813C72.4216 41.904 70.1755 39.5893 70.1755 35.9715C70.1755 31.4107 74.119 28.3931 79.64 28.3931C85.401 28.3931 89.0188 31.3593 89.1045 35.8344H84.2522C84.0808 33.7426 82.2462 32.4738 79.6572 32.4738C77.1024 32.4738 75.3878 33.6911 75.3878 35.5257C75.3878 37.0517 76.588 37.909 79.4343 38.5606L82.4348 39.195C87.3899 40.258 89.5503 42.3841 89.5503 46.1562C89.5503 50.957 85.6582 53.9918 79.52 53.9918C73.5704 53.9918 69.7811 51.1628 69.6268 46.5162Z" fill="#001746"/>
<defs>
<radialGradient id="paint0_radial_4301_62" cx="0" cy="0" r="1" gradientUnits="userSpaceOnUse" gradientTransform="translate(35.4617 36.14) rotate(150.513) scale(25.2386 25.5627)">
<stop stop-color="#C4ECFE"/>
<stop offset="1" stop-color="#1177FE"/>
</radialGradient>
</defs>
</svg>
