<svg width="48" height="49" viewBox="0 0 48 49" fill="none" xmlns="http://www.w3.org/2000/svg">
<path d="M38.3302 17.9727V31.8531C38.3303 32.9753 37.9015 34.0551 37.1317 34.8715C36.3618 35.688 35.3091 36.1794 34.1888 36.2453L33.9307 36.2526H13.3997C12.2775 36.2527 11.1977 35.8239 10.3813 35.0541C9.56483 34.2842 9.0734 33.2315 9.00757 32.1112L9.00024 31.8531V17.9727L22.8513 27.2072L23.0214 27.304C23.2219 27.402 23.4421 27.4529 23.6652 27.4529C23.8883 27.4529 24.1085 27.402 24.309 27.304L24.4791 27.2072L38.3302 17.9727Z" fill="#323232"/>
<path d="M33.9307 12.7886C35.5145 12.7886 36.9033 13.6245 37.6776 14.8813L23.6652 24.2229L9.65283 14.8813C10.0206 14.2842 10.5258 13.7836 11.1263 13.4214C11.7268 13.0591 12.4052 12.8457 13.1049 12.7989L13.3997 12.7886H33.9307Z" fill="#323232"/>
</svg>
