<svg width="48" height="49" viewBox="0 0 48 49" fill="none" xmlns="http://www.w3.org/2000/svg">
<path d="M24.0002 10.7886C16.2683 10.7886 10.0002 17.0567 10.0002 24.7886C10.0002 31.354 14.5205 36.8633 20.6184 38.3764V29.067H17.7316V24.7886H20.6184V22.9451C20.6184 18.18 22.7749 15.9714 27.4532 15.9714C28.3402 15.9714 29.8707 16.1456 30.4968 16.3192V20.1972C30.1664 20.1624 29.5924 20.1451 28.8795 20.1451C26.584 20.1451 25.697 21.0148 25.697 23.2755V24.7886H30.27L29.4843 29.067H25.697V38.6861C32.6292 37.8489 38.0008 31.9465 38.0008 24.7886C38.0002 17.0567 31.7321 10.7886 24.0002 10.7886Z" fill="#323232"/>
</svg>
