<svg width="48" height="49" viewBox="0 0 48 49" fill="none" xmlns="http://www.w3.org/2000/svg">
<path d="M24.0002 13.3097C27.7408 13.3097 28.1838 13.3261 29.6549 13.3917C31.0221 13.4519 31.7604 13.6816 32.2525 13.873C32.9033 14.1245 33.3736 14.4308 33.8604 14.9175C34.3525 15.4097 34.6533 15.8745 34.9049 16.5253C35.0963 17.0175 35.326 17.7613 35.3861 19.123C35.4518 20.5995 35.4682 21.0425 35.4682 24.7777C35.4682 28.5183 35.4518 28.9613 35.3861 30.4324C35.326 31.7995 35.0963 32.5378 34.9049 33.03C34.6533 33.6808 34.3471 34.1511 33.8604 34.6378C33.3682 35.13 32.9033 35.4308 32.2525 35.6824C31.7604 35.8738 31.0166 36.1034 29.6549 36.1636C28.1783 36.2292 27.7354 36.2456 24.0002 36.2456C20.2596 36.2456 19.8166 36.2292 18.3455 36.1636C16.9783 36.1034 16.24 35.8738 15.7479 35.6824C15.0971 35.4308 14.6268 35.1245 14.14 34.6378C13.6479 34.1456 13.3471 33.6808 13.0955 33.03C12.9041 32.5378 12.6744 31.7941 12.6143 30.4324C12.5486 28.9558 12.5322 28.5128 12.5322 24.7777C12.5322 21.037 12.5486 20.5941 12.6143 19.123C12.6744 17.7558 12.9041 17.0175 13.0955 16.5253C13.3471 15.8745 13.6533 15.4042 14.14 14.9175C14.6322 14.4253 15.0971 14.1245 15.7479 13.873C16.24 13.6816 16.9838 13.4519 18.3455 13.3917C19.8166 13.3261 20.2596 13.3097 24.0002 13.3097ZM24.0002 10.7886C20.1994 10.7886 19.7236 10.805 18.2307 10.8706C16.7432 10.9363 15.7205 11.1769 14.8346 11.5214C13.9104 11.8823 13.1283 12.3581 12.3518 13.1402C11.5697 13.9167 11.094 14.6988 10.733 15.6175C10.3885 16.5089 10.1479 17.5261 10.0822 19.0136C10.0166 20.512 10.0002 20.9878 10.0002 24.7886C10.0002 28.5894 10.0166 29.0652 10.0822 30.5581C10.1479 32.0456 10.3885 33.0683 10.733 33.9542C11.094 34.8784 11.5697 35.6605 12.3518 36.437C13.1283 37.2136 13.9104 37.6948 14.8291 38.0503C15.7205 38.3948 16.7377 38.6355 18.2252 38.7011C19.7182 38.7667 20.194 38.7831 23.9947 38.7831C27.7955 38.7831 28.2713 38.7667 29.7643 38.7011C31.2518 38.6355 32.2744 38.3948 33.1604 38.0503C34.0791 37.6948 34.8611 37.2136 35.6377 36.437C36.4143 35.6605 36.8955 34.8784 37.251 33.9597C37.5955 33.0683 37.8361 32.0511 37.9018 30.5636C37.9674 29.0706 37.9838 28.5948 37.9838 24.7941C37.9838 20.9933 37.9674 20.5175 37.9018 19.0245C37.8361 17.537 37.5955 16.5144 37.251 15.6284C36.9065 14.6988 36.4307 13.9167 35.6486 13.1402C34.8721 12.3636 34.09 11.8824 33.1713 11.5269C32.2799 11.1823 31.2627 10.9417 29.7752 10.8761C28.2768 10.805 27.801 10.7886 24.0002 10.7886Z" fill="#323232"/>
<path d="M24.0002 17.5972C20.0299 17.5972 16.8088 20.8183 16.8088 24.7886C16.8088 28.7589 20.0299 31.98 24.0002 31.98C27.9705 31.98 31.1916 28.7589 31.1916 24.7886C31.1916 20.8183 27.9705 17.5972 24.0002 17.5972ZM24.0002 29.4534C21.4244 29.4534 19.3354 27.3644 19.3354 24.7886C19.3354 22.2128 21.4244 20.1238 24.0002 20.1238C26.576 20.1238 28.665 22.2128 28.665 24.7886C28.665 27.3644 26.576 29.4534 24.0002 29.4534Z" fill="#323232"/>
<path d="M33.1549 17.3127C33.1549 18.2424 32.4002 18.9916 31.476 18.9916C30.5463 18.9916 29.7971 18.2369 29.7971 17.3127C29.7971 16.383 30.5518 15.6338 31.476 15.6338C32.4002 15.6338 33.1549 16.3885 33.1549 17.3127Z" fill="#323232"/>
</svg>
