<svg width="59" height="61" viewBox="0 0 59 61" fill="none" xmlns="http://www.w3.org/2000/svg">
<path d="M30.7337 1.77138C32.6965 1.09157 35.5842 1.63202 37.1703 2.97509L41.0069 6.22416L50.2725 9.86902C52.2624 10.6518 54.159 13.0071 54.5009 15.1174L54.975 18.0525L55.0342 18.1024C56.6202 19.4457 57.6283 22.2053 57.2826 24.2546L56.616 28.1952L58.248 38.2857C58.5909 40.401 57.4933 43.1913 55.8014 44.5048L53.5628 46.2439L53.4791 46.7436C53.1322 48.7974 51.25 51.0201 49.2814 51.7006L44.3519 53.405L37.2715 58.9104C35.7382 60.1021 33.0859 60.5867 31.0996 60.0367L31.0991 60.0386C30.9262 59.9907 30.7575 59.9348 30.5998 59.873L28.2861 58.9628L27.7257 59.1572C25.7612 59.8356 22.8735 59.2951 21.2874 57.952L17.4451 54.6983L8.18572 51.0562C6.1958 50.2734 4.29831 47.9179 3.95644 45.8075L3.48202 42.8733L3.42448 42.825C1.83834 41.4818 0.829559 38.7221 1.17681 36.674L1.84245 32.7331L0.210766 22.6376C-0.132064 20.5223 0.96762 17.7326 2.65737 16.4185L4.89439 14.6779L4.97862 14.1834C5.32425 12.1312 7.20773 9.90695 9.17634 9.22643L14.0972 7.52377L21.1873 2.01286C22.7206 0.821178 25.375 0.337182 27.3592 0.886609C27.532 0.934476 27.7008 0.990421 27.8585 1.05223L30.1759 1.96347L30.7337 1.77138ZM21.6654 57.5054C23.0627 58.6887 25.6836 59.1929 27.4437 58.6312L19.1366 55.3632L21.6654 57.5054ZM29.165 58.6579L30.8196 59.3096C30.9589 59.3641 31.1063 59.4143 31.2602 59.457C33.0799 59.9608 35.5041 59.5215 36.9015 58.4351L42.5845 54.017L29.165 58.6579ZM17.7034 54.1496L28.3251 58.3281L32.2147 56.9833C31.0814 57.272 29.7735 57.2842 28.6515 56.9735C28.3088 56.8784 27.9908 56.7551 27.7069 56.6085L9.31142 47.0421L17.7034 54.1496ZM4.55192 45.71C4.85924 47.6018 6.62227 49.7924 8.40555 50.4928L16.0128 53.4849L4.18957 43.4725L4.55192 45.71ZM30.878 55.3881C29.9069 55.8587 28.5558 55.9996 27.2881 55.7863L27.9532 56.1326C28.2038 56.2636 28.4886 56.372 28.7965 56.4573C30.3263 56.8809 32.2257 56.6609 33.4141 55.9231L46.3188 47.9011L30.878 55.3881ZM28.3144 54.1766C27.3605 54.5204 26.0821 54.5302 24.8956 54.2017L24.8947 54.2015L25.4778 54.5879C25.839 54.826 26.2727 55.0167 26.768 55.1539C28.0946 55.5212 29.6219 55.4336 30.6578 54.9319L43.6324 48.6408L28.3144 54.1766ZM53.5461 42.8386C53.0476 43.8811 52.294 44.8159 51.4253 45.3562L33.6948 56.3768C33.5361 56.4756 33.3657 56.5656 33.1862 56.6474L44.0204 52.9007L53.0297 45.8967L53.5461 42.8386ZM5.98157 41.6594C6.07602 43.3602 7.43423 45.4623 8.94637 46.2489L22.976 53.5445L8.21839 43.7876C7.19735 43.1116 6.33926 41.8477 5.91919 40.5417L5.98157 41.6594ZM26.0072 52.7818C25.2497 52.9694 24.3245 52.932 23.4028 52.6767L23.4057 52.6735C23.1877 52.6131 22.9767 52.54 22.7728 52.4597L23.2883 52.8852C23.7347 53.2532 24.3354 53.547 25.0222 53.7372C26.1179 54.0406 27.2864 54.0372 28.1491 53.7235L41.0036 49.0771L26.0072 52.7818ZM6.15635 38.7338C6.07641 40.3503 7.15061 42.4717 8.50174 43.3645L21.0121 51.6348L8.05624 40.9663C7.16009 40.228 6.47653 38.9526 6.20798 37.68L6.15635 38.7338ZM23.9723 51.2273C23.4133 51.3042 22.7736 51.2501 22.1183 51.0686L22.1188 51.0667C21.7092 50.9533 21.3126 50.7954 20.9459 50.6041L21.3901 51.0565C21.8979 51.5711 22.6558 51.9895 23.5282 52.2312C24.4007 52.4728 25.2185 52.501 25.9006 52.3328L38.5193 49.2151L23.9723 51.2273ZM22.199 49.5588C21.8195 49.5706 21.4129 49.5175 20.9885 49.4C20.4315 49.2457 19.8867 48.991 19.4063 48.6731L19.7786 49.1399C20.3071 49.8027 21.225 50.3652 22.2337 50.6446C22.8319 50.8102 23.4108 50.8617 23.9105 50.7917L36.1071 49.1034L22.199 49.5588ZM6.6088 35.9873C6.37276 37.5076 7.17612 39.6183 8.36363 40.5954L19.363 49.6531L8.18193 38.2874C7.40916 37.5013 6.88844 36.2277 6.76116 34.998L6.6088 35.9873ZM20.69 47.8065C20.4696 47.79 20.2372 47.7479 20.0027 47.683C19.345 47.5008 18.6915 47.1444 18.1461 46.6957L18.4493 47.1708C18.9637 47.9763 20.0063 48.6942 21.1038 48.9982C21.4887 49.1048 21.854 49.153 22.1907 49.1421L33.9045 48.758L20.69 47.8065ZM2.44461 32.681L4.04561 42.5835L6.57147 44.7218C5.9337 43.7794 5.50341 42.6863 5.44819 41.6901L4.32788 21.5433L2.44461 32.681ZM7.30845 33.435C6.93449 34.8469 7.48681 36.9217 8.50968 37.9637L18.0168 47.6276L8.57021 35.7654C7.91492 34.9433 7.54934 33.6816 7.55438 32.5029L7.30845 33.435ZM19.4454 45.9996C19.3524 45.9824 19.2579 45.9619 19.1632 45.9357L19.1605 45.938C18.4352 45.7371 17.7048 45.2702 17.1361 44.6894L17.3813 45.1798C17.8489 46.1167 18.9697 46.9896 20.1065 47.3044C20.3175 47.3628 20.524 47.3995 20.7193 47.4153L31.8952 48.2199L19.4454 45.9996ZM1.75389 36.7709C1.47991 38.3914 2.17957 40.5812 3.32477 41.9006L2.13304 34.5271L1.75389 36.7709ZM8.22338 31.0932C7.73007 32.3912 8.04397 34.4037 8.90951 35.4915L16.911 45.539L9.18048 33.4224C8.645 32.5821 8.42467 31.3586 8.5434 30.2486L8.22338 31.0932ZM16.5732 43.1909C16.9584 44.2178 18.1369 45.2674 19.2582 45.5779C19.3411 45.6009 19.4251 45.6195 19.5063 45.6334L29.934 47.4934L18.4406 44.172C17.6936 43.956 16.9345 43.3871 16.3878 42.6967L16.5732 43.1909ZM45.7876 52.2896L49.0911 51.1474C50.8046 50.5548 52.5087 48.5758 52.8782 46.7768L45.7876 52.2896ZM9.32177 28.9746C8.72811 30.1513 8.82413 32.0865 9.53467 33.1972L16.0885 43.4701L9.99405 31.2674C9.57191 30.4227 9.48519 29.248 9.70605 28.2126L9.32177 28.9746ZM35.5627 47.0294C35.0154 47.581 34.1494 47.9617 33.2819 48.0901L33.8581 48.1939C35.0265 48.4027 36.6431 47.7987 37.3886 46.8723L44.4939 38.0349L35.5627 47.0294ZM33.5703 46.7412C33.0032 47.2047 32.1465 47.4836 31.3098 47.5197L31.8708 47.6822C32.9703 47.9865 34.5128 47.5807 35.3118 46.7755L42.9184 39.1135L33.5703 46.7412ZM16.0107 41.2334C16.2944 42.3278 17.4527 43.5179 18.539 43.8314L28.1968 46.6202L17.6751 42.3439C16.9918 42.0656 16.3328 41.4533 15.8848 40.7477L16.0107 41.2334ZM31.7151 46.2721C31.1345 46.6514 30.291 46.8338 29.4877 46.7811L29.9887 46.9847C30.0728 47.0186 30.1625 47.05 30.2553 47.0757C31.262 47.3544 32.595 47.0983 33.353 46.4794L41.2969 40.0001L31.7151 46.2721ZM37.6844 47.1032C37.165 47.7498 36.2927 48.2463 35.392 48.4728L36.0258 48.5186C37.2739 48.609 38.8993 47.7961 39.5772 46.7447L46.0586 36.6878L37.6844 47.1032ZM30.0081 45.6484C29.4297 45.946 28.622 46.0386 27.8654 45.9103L28.3084 46.1475C28.4618 46.2303 28.6364 46.2981 28.8238 46.35C29.728 46.6004 30.8429 46.4578 31.5361 46.0036L39.6609 40.686L30.0081 45.6484ZM15.6697 39.3252C15.8303 40.3878 16.8046 41.6276 17.7998 42.0328L26.6697 45.636L17.1336 40.5412C16.5143 40.21 15.9518 39.565 15.5986 38.8536L15.6697 39.3252ZM39.9055 46.9572C39.4357 47.6854 38.5851 48.2968 37.6748 48.6347L38.3351 48.6139C39.6516 48.5724 41.2633 47.5414 41.8565 46.3666L47.5535 35.0913L39.9055 46.9572ZM28.4567 44.8875C27.8876 45.1081 27.1243 45.1245 26.4157 44.9283L26.4162 44.9264C26.4118 44.9252 26.4077 44.9231 26.4033 44.9218L26.8017 45.1922C27.0186 45.3373 27.2779 45.4538 27.5739 45.5358C28.3576 45.7528 29.2597 45.6906 29.8695 45.377L38.0944 41.147L28.4567 44.8875ZM15.5405 37.4898C15.5855 38.5097 16.3843 39.7768 17.2841 40.2576L25.2807 44.5299L16.8008 38.7862C16.2506 38.4129 15.7834 37.7504 15.52 37.0443L15.5405 37.4898ZM42.2204 46.5565C41.811 47.3678 40.9928 48.099 40.0807 48.5531L40.7537 48.4608C42.126 48.2712 43.7014 47.018 44.1925 45.7215L48.8942 33.3488L42.2204 46.5565ZM27.0675 44.0164C26.6103 44.1404 26.0513 44.1261 25.4949 43.9721L25.4954 43.9702C25.3665 43.9345 25.2415 43.8912 25.1212 43.8433L25.4736 44.1405C25.7373 44.3622 26.0883 44.5377 26.4928 44.6497C27.1423 44.8295 27.8385 44.8182 28.3504 44.6199L36.5509 41.437L27.0675 44.0164ZM10.5663 27.0818C9.88805 28.1352 9.78795 29.9707 10.3465 31.0924L15.543 41.4991L10.9786 29.3148C10.6627 28.4718 10.698 27.3462 11.0131 26.3868L10.5663 27.0818ZM15.5979 35.7456C15.5403 36.7137 16.169 37.9914 16.9709 38.5344L24.1259 43.3792L16.6601 37.0915C16.1773 36.6849 15.8024 36.0134 15.6233 35.3209L15.5979 35.7456ZM25.8434 43.0502C25.4987 43.1056 25.1049 43.0778 24.7042 42.9668L24.7023 42.9663C24.4604 42.8993 24.2269 42.8035 24.0111 42.6888L24.3232 43.0144C24.6187 43.3213 25.0609 43.5672 25.5681 43.7076C26.0754 43.8481 26.5835 43.8635 26.9947 43.7521L35.0833 41.5515L25.8434 43.0502ZM44.603 45.8818C44.2624 46.779 43.4809 47.638 42.571 48.2141L43.2755 48.0414C44.692 47.6919 46.2038 46.2038 46.5754 44.7934L50.1396 31.3103L44.603 45.8818ZM24.7825 42.0218C24.5427 42.0361 24.2857 42.0048 24.0174 41.9305L24.0136 41.9295C23.6884 41.8394 23.3722 41.6884 23.0935 41.5014L23.3485 41.8284C23.6528 42.2187 24.1843 42.5503 24.7706 42.7126C25.1356 42.8137 25.4917 42.8405 25.7985 42.7916L33.5894 41.5269L24.7825 42.0218ZM15.826 34.1023C15.6746 35.0104 16.1416 36.2788 16.8461 36.8735L23.1287 42.1648L16.6959 35.4801C16.2802 35.0477 15.9919 34.376 15.8917 33.704L15.826 34.1023ZM7.31317 16.0246C5.86776 16.923 4.7295 19.1164 4.82243 20.8149L5.72656 37.0765L6.61937 18.8998C6.67403 17.78 7.231 16.5428 8.03429 15.5757L7.31317 16.0246ZM11.9303 25.4166C11.1846 26.3452 10.9074 28.0704 11.3261 29.183L15.2047 39.5369L12.0994 27.5651C11.8846 26.737 12.0294 25.6781 12.4224 24.8031L11.9303 25.4166ZM47.0168 44.9157C46.7595 45.8918 46.037 46.8764 45.1484 47.5791L45.8666 47.32C47.3099 46.7973 48.7289 45.0752 48.9641 43.559L51.2145 29.0352L47.0168 44.9157ZM23.8755 40.9388C23.7286 40.9321 23.5762 40.9065 23.4183 40.8628C23.0297 40.7548 22.6474 40.5411 22.3297 40.2746L22.5442 40.6198C22.8386 41.0922 23.4405 41.5134 24.0779 41.6899C24.3206 41.7571 24.5508 41.7846 24.7622 41.773L32.3266 41.3485L23.8755 40.9388ZM16.2045 32.5706C15.9713 33.4135 16.2881 34.6597 16.8933 35.2906L22.3201 40.9316L16.8906 33.9573C16.5407 33.5076 16.3348 32.8433 16.3068 32.1977L16.2045 32.5706ZM34.9748 20.2906C34.8346 20.2518 34.698 20.2287 34.5699 20.223L25.3931 19.7775C24.6446 19.7403 23.6601 20.2391 23.2488 20.8648L18.0529 28.7313C17.6396 29.3565 17.5666 30.4562 17.894 31.1314L21.9071 39.3966C22.1721 39.9439 22.8211 40.4552 23.4843 40.6389C23.6245 40.6777 23.7611 40.7007 23.8892 40.7064L33.066 41.152C33.8145 41.1892 34.799 40.6904 35.2103 40.0647L40.4062 32.1982C40.8195 31.573 40.8925 30.4733 40.5651 29.7981L36.5523 21.5319C36.2852 20.9842 35.6379 20.4742 34.9748 20.2906ZM16.7134 31.1571C16.4097 31.9317 16.5834 33.139 17.0946 33.7949L21.6428 39.6375L17.2252 32.5401C16.9382 32.0768 16.8094 31.4243 16.8494 30.8087L16.7134 31.1571ZM13.3878 23.977C12.5919 24.779 12.1583 26.383 12.4418 27.4775L15.0757 37.6316L13.3332 26.026C13.2124 25.2222 13.4546 24.2346 13.9136 23.4468L13.3878 23.977ZM49.4434 43.6319C49.2807 44.6856 48.6294 45.7981 47.7737 46.6321L48.5038 46.2789C49.9571 45.5739 51.252 43.6138 51.3308 42.0013L52.0888 26.5545L49.4434 43.6319ZM9.95827 14.6473C8.50491 15.3523 7.20724 17.3115 7.12786 18.9261L6.37025 34.3567L9.01578 17.2935C9.17802 16.2425 9.82461 15.1315 10.6771 14.2982L9.95827 14.6473ZM17.3351 29.8782C16.9712 30.5787 17.0163 31.737 17.4337 32.4094L21.1542 38.3866L17.6808 31.2314C17.4559 30.7669 17.4003 30.1404 17.4979 29.5646L17.3351 29.8782ZM35.4073 40.1912C35.0923 40.6685 34.4993 41.0681 33.8889 41.2613L34.4199 41.232C35.2081 41.1866 36.1816 40.5571 36.5456 39.8568L39.9229 33.3543L35.4073 40.1912ZM14.9056 22.7628C14.0736 23.4421 13.505 24.9127 13.6636 25.9746L15.1444 35.8318L14.6499 24.6923C14.6154 23.9208 14.9434 23.0124 15.4556 22.3132L14.9056 22.7628ZM36.773 39.9725C36.501 40.4969 35.9404 40.9714 35.3358 41.2434L35.848 41.1613C36.6694 41.0274 37.619 40.2618 37.9222 39.4892L40.7161 32.3742L36.773 39.9725ZM51.837 42.0249C51.7821 43.1476 51.2215 44.387 50.4153 45.3551L51.1446 44.9025C52.59 44.0041 53.7308 41.8092 53.6353 40.1122L52.7304 23.8351L51.837 42.0249ZM38.1683 39.5847C37.9376 40.1721 37.3896 40.7411 36.7752 41.0918L37.336 40.94C38.1795 40.7101 39.0895 39.8038 39.3229 38.961L41.4812 31.1482L38.1683 39.5847ZM53.7116 45.3661L55.4312 44.0304C56.9411 42.8573 57.9597 40.2698 57.6537 38.3826L56.3042 30.0382L53.7116 45.3661ZM3.0276 16.8929C1.51767 18.0661 0.499047 20.6535 0.805045 22.5407L2.15497 30.8872L4.74649 15.556L3.0276 16.8929ZM39.5898 39.0329C39.4133 39.6702 38.9074 40.3206 38.3073 40.755L38.8667 40.5391C39.7263 40.2053 40.5774 39.1569 40.729 38.2489L42.1271 29.8476L39.5898 39.0329ZM12.5911 13.6071C11.1478 14.1298 9.72874 15.8519 9.49367 17.3681L7.24607 31.8744L11.4385 16.0168C11.6982 15.0365 12.4243 14.0469 13.3166 13.3439L12.5911 13.6071ZM16.4614 21.7659C15.6077 22.3245 14.924 23.6586 14.9714 24.677L15.3908 34.1297L16.029 23.5654C16.0731 22.8325 16.4728 22.0052 17.0261 21.3953L16.4614 21.7659ZM41.0167 38.2931C40.9029 38.9788 40.4454 39.7152 39.8656 40.236L40.4289 39.9472C41.2914 39.5037 42.0699 38.3123 42.1276 37.3442L42.669 28.3662L41.0167 38.2931ZM18.031 20.9795C17.1685 21.4229 16.3897 22.6153 16.3321 23.5834L15.7911 32.5413L17.4411 22.634C17.5547 21.9489 18.011 21.2123 18.59 20.6914L18.031 20.9795ZM42.4301 37.3641C42.3863 38.0912 41.9911 38.9096 41.4445 39.5181L41.995 39.1588C42.8487 38.6003 43.5331 37.2663 43.4878 36.2485L43.0675 26.7955L42.4301 37.3641ZM15.1832 12.886C13.7666 13.2356 12.2563 14.7219 11.8829 16.1317L8.30873 29.6506L13.8585 15.0463C14.1998 14.1468 14.9825 13.2855 15.8937 12.7098L15.1832 12.886ZM43.8102 36.2334C43.8446 37.0016 43.5196 37.9052 43.0111 38.6032L43.5503 38.1637C44.3823 37.4845 44.9507 36.0139 44.7904 34.9514L43.3177 25.1492L43.8102 36.2334ZM19.59 20.3918C18.7306 20.7256 17.8792 21.775 17.7275 22.6829L16.3253 31.1023L18.8688 21.8985C19.0457 21.2597 19.5525 20.6066 20.1545 20.1721L19.59 20.3918ZM45.1274 34.9018C45.2476 35.7026 45.0054 36.6844 44.5498 37.4707L45.0704 36.9482C45.8669 36.1442 46.3 34.5422 46.0164 33.4477L43.383 23.2957L45.1274 34.9018ZM21.1207 19.9908C20.2771 20.2207 19.3672 21.127 19.1338 21.9698L16.974 29.7843L20.293 21.3404C20.5221 20.7574 21.0623 20.1914 21.6711 19.8402L21.1207 19.9908ZM17.7037 12.4601C16.3313 12.6498 14.7554 13.9048 14.2631 15.1989L9.55421 27.5899L16.2326 14.3733C16.6455 13.5549 17.4735 12.8167 18.3951 12.3638L17.7037 12.4601ZM51.8764 16.1934C52.5186 17.1388 52.9519 18.237 53.0077 19.2365L54.1284 39.3965L56.0139 28.2433L54.4129 18.3407L51.8764 16.1934ZM22.6087 19.7624C21.7878 19.8943 20.8374 20.6629 20.5342 21.4355L17.7047 28.6349L21.6932 20.9569C21.9687 20.4259 22.5387 19.9439 23.152 19.6737L22.6087 19.7624ZM46.3587 33.3641C46.5722 34.1871 46.4289 35.2376 46.0414 36.1095L46.5246 35.5096C47.2705 34.5812 47.5484 32.8563 47.1297 31.7435L43.2562 21.4042L46.3587 33.3641ZM20.1274 12.3105C18.8124 12.3546 17.1991 13.383 16.6061 14.5577L10.9383 25.7753L18.5485 13.9688C19.0192 13.2394 19.8709 12.6257 20.7831 12.2884L20.1274 12.3105ZM24.036 19.6945C23.2478 19.7399 22.2744 20.3694 21.9102 21.0697L18.529 27.5793L23.0512 20.7331C23.3649 20.258 23.9533 19.8587 24.5601 19.6644L24.036 19.6945ZM47.484 31.6096C47.799 32.4502 47.7635 33.5712 47.4508 34.5289L47.8911 33.8462C48.5696 32.7929 48.6698 30.9565 48.1112 29.8347L42.9391 19.4793L47.484 31.6096ZM22.43 12.408C21.182 12.3174 19.5565 13.1304 18.8805 14.1823L12.3896 24.2519L20.7787 13.8193C21.2953 13.176 22.1613 12.681 23.057 12.4529L22.43 12.408ZM40.7777 29.6928C41.0022 30.1561 41.0573 30.781 40.9607 31.3556L41.1208 31.0484C41.4845 30.3479 41.4391 29.1904 41.0214 28.52L37.3169 22.5655L40.7777 29.6928ZM48.4599 29.6586C48.8853 30.5098 48.9696 31.6961 48.7424 32.7373L49.1408 31.9498C49.7344 30.7731 49.6392 28.8381 48.9307 27.7279L42.3301 17.3823L48.4599 29.6586ZM24.5978 12.7326C23.4292 12.5238 21.8112 13.1295 21.0663 14.054L13.9378 22.9204L22.8945 13.8995C23.443 13.3468 24.3117 12.964 25.1811 12.8364L24.5978 12.7326ZM41.2382 28.3885C41.5202 28.8438 41.6483 29.4816 41.6148 30.0877L41.7413 29.7661C42.0448 28.9915 41.871 27.785 41.3599 27.1292L36.8491 21.3345L41.2382 28.3885ZM26.5884 13.2433C25.4888 12.9388 23.9455 13.3443 23.1465 14.1496L15.5197 21.8294L24.8924 14.1862C25.4653 13.7182 26.3326 13.4392 27.177 13.4083L26.5897 13.2386L26.5884 13.2433ZM41.5705 26.9687C41.9186 27.4162 42.1228 28.0761 42.152 28.7185L42.2513 28.36C42.4845 27.517 42.1688 26.2712 41.5615 25.6398L36.1881 20.055L41.5705 26.9687ZM49.2725 27.5074C49.8077 28.3471 50.0273 29.5696 49.9091 30.6791L50.2334 29.8265C50.7265 28.5284 50.4118 26.5156 49.5482 25.4285L41.4868 15.3046L49.2725 27.5074ZM14.4291 8.02706L5.42965 15.0247L4.91383 18.0769C5.41239 17.0386 6.16566 16.1091 7.03151 15.5707L24.761 4.54975C24.9195 4.45134 25.0895 4.3614 25.2684 4.27986L14.4291 8.02706ZM28.1996 13.8506C27.1929 13.5723 25.8606 13.8284 25.1029 14.4472L17.1402 20.9395L26.746 14.6539C27.3226 14.2772 28.1582 14.0917 28.9573 14.1404L28.4643 13.9411C28.3806 13.9073 28.2919 13.8762 28.1996 13.8506ZM41.7627 25.4513C42.1771 25.8824 42.4634 26.5516 42.5644 27.2216L42.6302 26.8304C42.7816 25.9223 42.3146 24.6539 41.6101 24.0593L35.3565 18.7912L41.7627 25.4513ZM29.6326 14.5746C28.7285 14.3244 27.6135 14.4669 26.9203 14.921L18.7511 20.2669L28.451 15.281C29.0314 14.9825 29.8435 14.8892 30.6036 15.0199L30.1508 14.7779C29.9973 14.6951 29.822 14.6271 29.6344 14.5752L29.6326 14.5746ZM49.8922 25.163C50.5442 25.981 50.9083 27.2344 50.9069 28.4079L51.1501 27.4893C51.5238 26.0774 50.9733 24.004 49.9486 22.9615L40.4572 13.3141L49.8922 25.163ZM30.8857 15.3918C30.1021 15.1749 29.2008 15.2373 28.5911 15.5509L20.3775 19.7728L30.0013 16.0386C30.5704 15.8181 31.333 15.8045 32.0415 16.0007C32.0462 16.002 32.0509 16.0032 32.0556 16.0046L31.658 15.7354C31.4435 15.5888 31.1837 15.4743 30.8876 15.3923L30.8857 15.3918ZM41.7979 23.8346C42.2814 24.2418 42.657 24.9151 42.8358 25.6086L42.8617 25.182C42.9213 24.2145 42.2915 22.9365 41.4897 22.3935L34.3333 17.5462L41.7979 23.8346ZM31.9644 16.2792C31.3149 16.0994 30.6188 16.1106 30.1063 16.3109L21.8961 19.4962L31.3902 16.9147C31.8475 16.7905 32.407 16.8051 32.9637 16.9592C33.0882 16.9937 33.209 17.0349 33.3253 17.0806L32.9826 16.7922C32.7208 16.571 32.3679 16.395 31.9633 16.283L31.9644 16.2792ZM32.8886 17.2232C32.3793 17.0822 31.8732 17.0674 31.462 17.1788L23.4102 19.3672L32.6167 17.8755C32.9615 17.82 33.356 17.8481 33.7587 17.9597C33.9908 18.0239 34.2155 18.1134 34.4238 18.2218L34.1311 17.9178C33.8356 17.6108 33.3935 17.365 32.8862 17.2245L32.8886 17.2232ZM9.36811 9.77808C7.65458 10.3717 5.95221 12.3468 5.58115 14.1446L12.6652 8.63707L9.36811 9.77808ZM33.6858 18.212C33.3208 18.111 32.9652 18.0822 32.6579 18.1331L24.8092 19.405L33.6825 18.9083C33.9223 18.8939 34.1795 18.9243 34.4479 18.9986C34.7693 19.0876 35.0821 19.2362 35.3587 19.42L35.106 19.0957C34.8017 18.7054 34.2697 18.3758 33.6834 18.2134L33.6858 18.212ZM34.3779 19.2366C34.1372 19.17 33.907 19.1426 33.6936 19.1535L26.1471 19.5759L34.5808 19.9859C34.7278 19.9926 34.8804 20.0172 35.0383 20.0609C35.423 20.1675 35.803 20.3786 36.1197 20.6421L35.9114 20.3077C35.6171 19.8352 35.0151 19.4151 34.3755 19.238L34.3779 19.2366ZM41.6583 22.1433C42.208 22.5162 42.6749 23.1785 42.9384 23.884L42.9187 23.4357C42.8738 22.4158 42.074 21.1484 41.1742 20.6676L33.1512 16.3809L41.6583 22.1433ZM50.2748 22.6434C51.0483 23.4304 51.5679 24.7061 51.6942 25.9376L51.8494 24.9419C52.0854 23.4217 51.2792 21.3101 50.0917 20.3331L39.0833 11.2678L50.2748 22.6434ZM56.3259 26.3993L56.7053 24.1545C56.9794 22.5329 56.2787 20.3413 55.1321 19.0222L56.3259 26.3993ZM41.3275 20.3848C41.9407 20.7131 42.4989 21.3507 42.8529 22.0556L42.7845 21.5999C42.6258 20.538 41.6492 19.2985 40.6542 18.8932L31.8127 15.3009L41.3275 20.3848ZM29.6612 4.46975C28.1314 4.04621 26.232 4.26612 25.0436 5.00394L12.1518 13.0163L27.5805 5.53617C28.55 5.06643 29.8978 4.9253 31.1636 5.13707L30.5046 4.79448C30.254 4.66345 29.9692 4.55502 29.6612 4.46975ZM50.4018 19.9599C51.2988 20.6994 51.9827 21.9796 52.2505 23.2554L52.3033 22.1938C52.3812 20.5768 51.3089 18.4559 49.9579 17.5631L37.4443 9.2899L50.4018 19.9599ZM40.7847 18.5828C41.467 18.8606 42.126 19.4714 42.574 20.1757L42.4481 19.6899C42.1644 18.5954 41.0062 17.4054 39.9198 17.0919L30.1953 14.2806L40.7847 18.5828ZM31.6921 5.77182C30.3655 5.40449 28.8382 5.49209 27.8024 5.99381L14.851 12.2742L30.146 6.74815C31.0991 6.40466 32.376 6.39545 33.5617 6.72321L32.9819 6.33973C32.6207 6.1016 32.1869 5.9109 31.6916 5.7737L31.6921 5.77182ZM33.4355 7.18986C32.3401 6.88653 31.1717 6.89222 30.3096 7.20385L17.4083 11.8656L32.4487 8.15183C33.2062 7.96421 34.1302 8.00244 35.052 8.2576C35.2687 8.31763 35.482 8.39039 35.6886 8.4724L35.1671 8.04324C34.7207 7.67528 34.1199 7.38143 33.4331 7.19122L33.4355 7.18986ZM38.9496 15.2931L28.5212 13.4319L40.0181 16.7553C40.7632 16.9709 41.5197 17.5381 42.066 18.2262L41.882 17.7345C41.4966 16.7077 40.3168 15.6586 39.1977 15.3486C39.1148 15.3257 39.0307 15.3071 38.9496 15.2931ZM34.9305 8.69618C34.0838 8.46178 33.2413 8.42569 32.5593 8.59387L19.9237 11.714L34.4892 9.70078C35.0481 9.62391 35.6882 9.67714 36.3434 9.85855C36.7499 9.97111 37.1441 10.1276 37.5085 10.3169L37.0672 9.86847C36.5613 9.35435 35.801 8.93723 34.9305 8.69618ZM50.2371 17.1368C51.2597 17.8137 52.1193 19.0803 52.5387 20.3885L52.4762 19.2676C52.3816 17.5667 51.0236 15.4646 49.5114 14.6782L35.489 7.38558L50.2371 17.1368ZM36.2251 10.2787C35.627 10.1131 35.048 10.0617 34.5464 10.1311L22.2705 11.8278L36.2549 11.3712C36.6342 11.3595 37.0402 11.4124 37.4645 11.5298C38.0324 11.6871 38.5876 11.949 39.0748 12.2757L38.6793 11.7791C38.1508 11.1163 37.233 10.5538 36.2242 10.2744L36.2251 10.2787ZM37.359 11.9252C36.9743 11.8187 36.6093 11.7716 36.2728 11.7825L24.5369 12.1655L37.764 13.1196C37.9846 13.1361 38.2177 13.1773 38.4525 13.2423C39.1196 13.4271 39.7811 13.7911 40.3304 14.2477L40.0152 13.7541C39.5007 12.9485 38.4585 12.2297 37.3609 11.9257L37.359 11.9252ZM38.3493 13.6221C38.1381 13.5636 37.9311 13.5268 37.7357 13.511L26.6096 12.7091L39.0177 14.9228C39.1107 14.9401 39.2054 14.9596 39.3002 14.9859C40.0207 15.1854 40.7458 15.6484 41.3132 16.2242L41.0748 15.7458C40.6074 14.8087 39.4869 13.9351 38.3499 13.6202L38.3493 13.6221ZM27.1986 1.46636C25.3789 0.962461 22.9528 1.40133 21.5554 2.48768L15.8611 6.91376L29.2994 2.26695L27.6373 1.61315C27.498 1.55871 27.3504 1.50838 27.1986 1.46636ZM54.2694 17.4538L53.9069 15.2134C53.5996 13.3215 51.8365 11.1309 50.0532 10.4305L42.4361 7.43361L54.2694 17.4538ZM26.2448 3.94122C27.3774 3.65326 28.6834 3.64272 29.8043 3.95306C30.1477 4.04814 30.4664 4.1718 30.7509 4.31853L49.1555 13.8886L40.7484 6.76969L30.1375 2.59628L26.2448 3.94122ZM36.7923 3.42166C35.3957 2.23898 32.7765 1.73409 31.0165 2.29452L39.3201 5.5605L36.7935 3.42098L36.7923 3.42166Z" fill="url(#paint0_radial_4301_16)"/>
<defs>
<radialGradient id="paint0_radial_4301_16" cx="0" cy="0" r="1" gradientUnits="userSpaceOnUse" gradientTransform="translate(28.6758 31.6111) rotate(150.513) scale(26.1032 26.4383)">
<stop stop-color="#C4ECFE"/>
<stop offset="1" stop-color="#1177FE"/>
</radialGradient>
</defs>
</svg>
