<svg width="233" height="311" viewBox="0 0 233 311" fill="none" xmlns="http://www.w3.org/2000/svg">
<g filter="url(#filter0_f_2341_1356)">
<path d="M136.853 413.809C135.803 416.8 132.615 419.319 127.577 420.601L127.537 420.61L-4.33595 453.924C-4.38442 453.938 -4.42882 453.95 -4.47956 453.959C-6.01025 454.338 -7.61536 454.58 -9.25821 454.688C-12.892 454.945 -16.7092 454.576 -20.2899 453.686C-24.389 452.662 -28.186 450.958 -31.0434 448.708C-31.6721 448.212 -32.2622 447.69 -32.7949 447.146L-131.188 346.341C-134.089 343.37 -134.896 340.213 -133.897 337.463L-60.6524 77.9064L30.3099 103.627L64.3829 95.0211C74.0646 92.5762 86.8052 95.6069 92.8418 101.8L94.2874 103.279L119.157 128.757L210.04 154.454L137.119 412.864C137.114 412.883 137.11 412.909 137.105 412.928C137.04 413.229 136.965 413.519 136.856 413.809L136.853 413.809Z" fill="#003096"/>
<path d="M129.883 420.016L127.574 420.6L127.534 420.609L-4.48487 453.954L-6.69048 454.512C-7.53622 454.725 -8.42344 454.879 -9.33906 454.962C-12.7277 455.3 -16.539 454.813 -20.2929 453.685C-20.3692 453.663 -20.4486 453.641 -20.5303 453.614L80.5735 95.3333C85.6927 96.9114 90.6757 99.6896 94.2834 103.281C94.3708 103.36 94.4596 103.447 94.5411 103.535L119.089 128.683L210.078 154.308L136.834 413.865C136.248 416.731 133.909 419 129.883 420.016Z" fill="#2968B7"/>
<path style="mix-blend-mode:lighten" d="M64.4763 193.383L-9.33999 454.966C-12.7286 455.303 -16.5399 454.816 -20.2938 453.688C-24.3929 452.665 -28.19 450.96 -31.0474 448.71L42.7349 187.248L64.4763 193.383Z" fill="url(#paint0_linear_2341_1356)"/>
<path d="M66.5107 195.11L203.085 160.611C211.467 158.494 212.612 150.985 205.638 143.844L110.63 46.5086C103.658 39.3641 91.2085 35.2898 82.8268 37.407L-53.7476 71.9062C-62.1293 74.0234 -63.2731 81.5294 -56.2977 88.6748L38.7105 186.01C45.6828 193.154 58.1322 197.229 66.5139 195.111L66.5107 195.11Z" fill="url(#paint1_linear_2341_1356)"/>
<path d="M41.2531 237.881C35.6477 236.3 30.121 233.272 26.2675 229.324L-74.5648 126.004L-73.9645 125.42L26.8678 228.741C33.7367 235.778 46.0296 239.811 54.2676 237.729L196.452 201.815L196.659 202.626L54.4744 238.54C50.6177 239.515 45.9083 239.195 41.2563 237.882L41.2531 237.881Z" fill="#2968B7"/>
<path d="M41.4795 237.08C35.8742 235.498 30.3466 232.474 26.4939 228.522L-74.3384 125.202L-73.738 124.619L27.0942 227.939C33.9631 234.976 46.256 239.009 54.4941 236.927L196.679 201.013L196.886 201.825L54.7009 237.738C50.8441 238.713 46.138 238.394 41.4827 237.081L41.4795 237.08Z" fill="black"/>
<path d="M8.33722 270.604L-28.4862 398.275C-29.5712 402.071 -32.0159 403.866 -34.7593 403.399L-108.55 329.253C-110.626 327.127 -112.181 324.067 -113.031 320.816C-113.899 317.485 -114.022 313.96 -113.195 311.053L-112.69 309.262L-76.37 183.389C-74.7336 177.651 -69.9907 176.478 -65.792 180.783L3.69687 252.412C6.16406 254.939 7.8983 258.799 8.57672 262.717C9.05418 265.462 9.01304 268.246 8.33543 270.611L8.33722 270.604Z" fill="url(#paint2_radial_2341_1356)"/>
<path d="M109.489 402.032L100.069 404.41C97.6456 405.023 96.3115 403.271 97.0949 400.495L136.776 259.876C137.559 257.103 140.159 254.357 142.586 253.745L152.005 251.366C154.429 250.753 155.763 252.505 154.979 255.281L115.298 395.9C114.515 398.674 111.915 401.42 109.489 402.032Z" fill="url(#paint3_linear_2341_1356)"/>
<path d="M75.4813 407.706L66.0618 410.085C63.6383 410.698 62.3041 408.946 63.0876 406.169L102.769 265.55C103.552 262.777 106.152 260.031 108.578 259.419L117.998 257.04C120.425 256.428 121.756 258.179 120.972 260.956L81.2905 401.575C80.508 404.348 77.9079 407.094 75.4813 407.706Z" fill="url(#paint4_linear_2341_1356)"/>
<path d="M41.4727 413.384L32.0532 415.763C29.6297 416.375 28.2956 414.623 29.079 411.847L68.7606 271.228C69.5431 268.455 72.1432 265.709 74.5698 265.097L83.9893 262.718C86.4128 262.105 87.7469 263.857 86.9635 266.633L47.282 407.253C46.4994 410.026 43.8994 412.772 41.4727 413.384Z" fill="#2968B7"/>
<path d="M154.976 255.281L115.295 395.9C114.512 398.673 111.915 401.42 109.489 402.032L100.069 404.411C98.5844 404.785 97.5077 404.273 97.0785 403.18C97.4191 403.201 97.7917 403.169 98.1985 403.065L107.618 400.686C110.041 400.073 112.641 397.327 113.424 394.554L153.106 253.935C153.409 252.86 153.394 251.939 153.119 251.249C154.813 251.361 155.626 252.966 154.974 255.276L154.976 255.281Z" fill="#003096"/>
<path d="M120.969 260.955L81.2874 401.574C80.5048 404.347 77.908 407.094 75.4813 407.706L66.0618 410.085C64.5737 410.459 63.4939 409.945 63.071 408.854C63.4099 408.881 63.7874 408.844 64.191 408.739L73.6105 406.361C76.034 405.748 78.6341 403.002 79.4166 400.228L119.098 259.609C119.401 258.535 119.386 257.617 119.111 256.927C120.805 257.039 121.619 258.64 120.967 260.951L120.969 260.955Z" fill="#003096"/>
<path d="M85.1054 262.605C85.3806 263.295 85.3943 264.22 85.092 265.291L45.4114 405.907C44.6279 408.683 42.0247 411.428 39.6044 412.042L30.8807 414.241L30.4424 415.794C30.8968 415.922 31.44 415.918 32.0534 415.762L41.4729 413.384C43.8995 412.772 46.4964 410.025 47.2799 407.248L86.9605 266.632C87.6133 264.319 86.7994 262.717 85.1063 262.602L85.1054 262.605Z" fill="#003096"/>
</g>
<defs>
<filter id="filter0_f_2341_1356" x="-147.406" y="23.7473" width="370.709" height="444.423" filterUnits="userSpaceOnUse" color-interpolation-filters="sRGB">
<feFlood flood-opacity="0" result="BackgroundImageFix"/>
<feBlend mode="normal" in="SourceGraphic" in2="BackgroundImageFix" result="shape"/>
<feGaussianBlur stdDeviation="6.55" result="effect1_foregroundBlur_2341_1356"/>
</filter>
<linearGradient id="paint0_linear_2341_1356" x1="-287.656" y1="266.194" x2="193.518" y2="353.507" gradientUnits="userSpaceOnUse">
<stop stop-color="#2D7DD5"/>
<stop offset="1" stop-color="#3584D7"/>
</linearGradient>
<linearGradient id="paint1_linear_2341_1356" x1="210.075" y1="154.467" x2="-60.7363" y2="78.0469" gradientUnits="userSpaceOnUse">
<stop stop-color="#94F4FF"/>
<stop offset="0.99" stop-color="#6173F3"/>
</linearGradient>
<radialGradient id="paint2_radial_2341_1356" cx="0" cy="0" r="1" gradientUnits="userSpaceOnUse" gradientTransform="translate(230.059 221.061) rotate(15.7586) scale(226.162 225.57)">
<stop offset="0.02" stop-color="#1D74FF"/>
<stop offset="0.12" stop-color="#2B4BDF"/>
<stop offset="0.27" stop-color="#2B21BA"/>
<stop offset="0.38" stop-color="#2C0AA5"/>
<stop offset="0.47" stop-color="#320399"/>
<stop offset="0.56" stop-color="#350094"/>
<stop offset="0.66" stop-color="#280074"/>
<stop offset="0.81" stop-color="#19004C"/>
<stop offset="0.93" stop-color="#0F0033"/>
<stop offset="1" stop-color="#0C002A"/>
</radialGradient>
<linearGradient id="paint3_linear_2341_1356" x1="118.21" y1="325.681" x2="133.866" y2="330.099" gradientUnits="userSpaceOnUse">
<stop stop-color="#94F4FF"/>
<stop offset="0.99" stop-color="#95E9FD"/>
</linearGradient>
<linearGradient id="paint4_linear_2341_1356" x1="84.1997" y1="331.355" x2="99.8591" y2="335.774" gradientUnits="userSpaceOnUse">
<stop stop-color="#94F4FF"/>
<stop offset="0.99" stop-color="#95E9FD"/>
</linearGradient>
</defs>
</svg>
