<svg width="249" height="326" viewBox="0 0 249 326" fill="none" xmlns="http://www.w3.org/2000/svg">
<g filter="url(#filter0_f_2341_1442)">
<path d="M236.973 230.892C237.307 233.001 236.221 235.514 233.644 237.884L233.623 237.902L166.076 299.802C166.051 299.825 166.029 299.846 166.002 299.868C165.215 300.582 164.341 301.238 163.401 301.827C161.329 303.141 158.947 304.143 156.539 304.759C153.782 305.462 150.986 305.665 148.572 305.244C148.041 305.151 147.524 305.03 147.034 304.878L56.4754 276.551C53.8057 275.716 52.3181 274.102 52.0316 272.153L12.5094 94.8389L74.6658 81.0187L92.1193 65.0266C97.0787 60.4827 105.602 58.2079 111.16 59.9506L112.49 60.3656L135.38 67.5246L197.482 53.7165L236.829 230.247C236.832 230.26 236.838 230.276 236.841 230.289C236.899 230.488 236.947 230.684 236.975 230.891L236.973 230.892Z" fill="#003096"/>
<path d="M234.824 236.8L233.642 237.884L233.621 237.902L165.997 299.867L164.867 300.903C164.434 301.299 163.957 301.674 163.441 302.016C161.539 303.299 159.124 304.228 156.537 304.759C156.485 304.771 156.431 304.783 156.374 304.793L101.819 60.0374C105.359 59.337 109.202 59.3918 112.489 60.3682C112.566 60.3874 112.646 60.4104 112.723 60.4365L135.316 67.5025L197.458 53.6174L236.98 230.931C237.548 232.818 236.887 234.911 234.824 236.8Z" fill="#2968B7"/>
<path style="mix-blend-mode:lighten" d="M123.611 123.321L163.441 302.018C161.54 303.301 159.124 304.23 156.538 304.761C153.78 305.465 150.984 305.667 148.571 305.246L108.758 126.631L123.611 123.321Z" fill="url(#paint0_linear_2341_1442)"/>
<path d="M125.369 123.695L195.326 59.5901C199.619 55.656 197.898 50.8375 191.481 48.8316L104.038 21.4806C97.6201 19.4725 88.936 21.0354 84.6427 24.9696L14.6862 89.0744C10.3929 93.0085 12.1135 97.8248 18.5333 99.8324L105.976 127.183C112.394 129.191 121.078 127.629 125.371 123.694L125.369 123.695Z" fill="url(#paint1_linear_2341_1442)"/>
<path d="M124.062 157.128C120.233 157.982 115.988 157.953 112.441 156.843L19.6318 127.805L19.8013 127.267L112.611 156.306C118.933 158.283 127.511 156.746 131.73 152.878L204.561 86.1418L204.943 86.5567L132.112 153.293C130.137 155.104 127.242 156.419 124.064 157.128L124.062 157.128Z" fill="#2968B7"/>
<path d="M123.94 156.58C120.11 157.434 115.866 157.407 112.319 156.296L19.5095 127.257L19.679 126.719L112.488 155.758C118.81 157.735 127.388 156.198 131.608 152.33L204.439 85.594L204.821 86.0089L131.99 152.745C130.014 154.556 127.122 155.871 123.942 156.58L123.94 156.58Z" fill="black"/>
<path d="M50.823 123.62C51.2824 125.682 53.2935 127.865 55.3119 128.497C57.3325 129.128 58.5963 127.969 58.1369 125.908C57.6774 123.847 55.6664 121.664 53.6479 121.032C51.6273 120.4 50.3635 121.559 50.823 123.62Z" fill="url(#paint2_linear_2341_1442)"/>
<path d="M39.0542 119.939C39.5136 122.001 41.5247 124.184 43.5431 124.816C45.5637 125.447 46.8275 124.288 46.3681 122.227C45.9086 120.166 43.8976 117.983 41.8791 117.351C39.8585 116.719 38.5947 117.878 39.0542 119.939Z" fill="url(#paint3_linear_2341_1442)"/>
<path d="M27.2849 116.258C27.7443 118.32 29.7554 120.503 31.7738 121.135C33.7944 121.766 35.0582 120.607 34.5988 118.546C34.1394 116.485 32.1283 114.302 30.1099 113.67C28.0893 113.038 26.8255 114.197 27.2849 116.258Z" fill="url(#paint4_linear_2341_1442)"/>
<path d="M115.002 187.051L133.97 274.522C134.54 277.12 133.664 278.965 131.888 279.566L64.4372 259.183C62.5268 258.586 60.6268 257.269 59.0842 255.613C57.5049 253.915 56.305 251.864 55.8663 249.876L55.5936 248.653L36.9013 162.409C36.0377 158.483 38.4751 156.272 42.3407 157.483L106.437 177.747C108.707 178.457 110.969 180.191 112.623 182.297C113.784 183.773 114.649 185.437 115.003 187.055L115.002 187.051Z" fill="url(#paint5_radial_2341_1442)"/>
<path style="mix-blend-mode:lighten" opacity="0.5" d="M86.8415 171.547L51.9677 231.905L36.9003 162.404C36.0367 158.479 38.4741 156.267 42.3397 157.478L86.8399 171.55L86.8415 171.547Z" fill="url(#paint6_linear_2341_1442)"/>
<path d="M216.984 232.654L212.159 237.075C210.918 238.213 209.567 237.6 209.144 235.704L187.732 139.641C187.31 137.747 187.974 135.288 189.217 134.149L194.042 129.728C195.283 128.59 196.634 129.203 197.057 131.099L218.469 227.162C218.891 229.056 218.227 231.516 216.984 232.654Z" fill="url(#paint7_linear_2341_1442)"/>
<path d="M198.633 246.887L193.807 251.308C192.566 252.446 191.215 251.834 190.793 249.937L169.381 153.874C168.959 151.98 169.623 149.521 170.866 148.382L175.691 143.961C176.934 142.823 178.283 143.436 178.706 145.332L200.118 241.395C200.54 243.289 199.876 245.749 198.633 246.887Z" fill="url(#paint8_linear_2341_1442)"/>
<path d="M180.281 261.123L175.456 265.544C174.215 266.682 172.864 266.069 172.441 264.172L151.03 168.11C150.607 166.215 151.271 163.756 152.515 162.618L157.34 158.197C158.581 157.059 159.932 157.671 160.355 159.568L181.767 255.63C182.189 257.525 181.525 259.984 180.281 261.123Z" fill="#2968B7"/>
<path d="M197.055 131.1L218.467 227.162C218.889 229.057 218.227 231.516 216.984 232.654L212.159 237.075C211.398 237.772 210.596 237.812 209.992 237.301C210.201 237.204 210.411 237.067 210.619 236.875L215.444 232.454C216.685 231.316 217.35 228.857 216.927 226.962L195.515 130.9C195.352 130.166 195.049 129.624 194.665 129.303C195.705 128.828 196.7 129.52 197.052 131.098L197.055 131.1Z" fill="#003096"/>
<path d="M178.704 145.333L200.116 241.396C200.538 243.29 199.876 245.749 198.633 246.887L193.808 251.308C193.045 252.005 192.24 252.046 191.641 251.534C191.85 251.442 192.062 251.299 192.268 251.108L197.093 246.687C198.334 245.549 198.998 243.09 198.576 241.196L177.164 145.133C177.001 144.399 176.698 143.86 176.315 143.538C177.355 143.063 178.349 143.753 178.701 145.331L178.704 145.333Z" fill="#003096"/>
<path d="M157.965 157.773C158.349 158.095 158.653 158.638 158.816 159.37L180.227 255.43C180.65 257.327 179.984 259.787 178.745 260.924L174.275 265.016L174.511 266.077C174.821 266.008 175.142 265.832 175.456 265.544L180.281 261.123C181.525 259.984 182.187 257.525 181.764 255.629L160.353 159.568C160 157.988 159.006 157.298 157.965 157.771L157.965 157.773Z" fill="#003096"/>
<path d="M104.675 203.075L88.0871 197.887L88.4749 199.637L105.062 204.825L104.675 203.075Z" fill="#42E8E0"/>
<path d="M85.701 197.157L81.206 195.752L81.5934 197.5L86.0888 198.908L85.701 197.157Z" fill="#42E8E0"/>
<path opacity="0.5" d="M64.6474 190.576L55.4531 187.697L55.8409 189.448L65.0369 192.323L64.6474 190.576Z" fill="#42E8E0"/>
<path d="M73.0389 193.201L66.3877 191.119L66.7777 192.869L73.4262 194.949L73.0389 193.201Z" fill="#42E8E0"/>
<path d="M79.2748 195.151L74.7793 193.744L75.1671 195.494L79.6621 196.899L79.2748 195.151Z" fill="#42E8E0"/>
<path d="M106.51 211.311L89.9226 206.123L90.3103 207.872L106.898 213.061L106.51 211.311Z" fill="#42E8E0"/>
<path opacity="0.5" d="M87.537 205.393L83.0415 203.986L83.4293 205.736L87.9243 207.141L87.537 205.393Z" fill="#42E8E0"/>
<path d="M66.4831 198.812L57.2888 195.933L57.6766 197.684L66.8726 200.559L66.4831 198.812Z" fill="#42E8E0"/>
<path d="M74.8746 201.437L68.2234 199.355L68.6134 201.105L75.2619 203.185L74.8746 201.437Z" fill="#42E8E0"/>
<path d="M81.1102 203.385L76.6152 201.98L77.003 203.73L81.498 205.135L81.1102 203.385Z" fill="#42E8E0"/>
<path d="M91.7583 214.359L97.1304 216.039L97.5204 217.788L92.1461 216.109L91.7583 214.359Z" fill="#42E8E0"/>
<path d="M108.346 219.547L108.733 221.295L99.0384 218.263L98.6484 216.514L108.346 219.547Z" fill="#42E8E0"/>
<path d="M89.3727 213.629L84.8772 212.222L85.265 213.972L89.76 215.377L89.3727 213.629Z" fill="#42E8E0"/>
<path opacity="0.5" d="M68.3191 207.048L59.1247 204.169L59.5121 205.917L68.7086 208.795L68.3191 207.048Z" fill="#42E8E0"/>
<path d="M76.7105 209.673L70.0593 207.591L70.4493 209.341L77.0979 211.421L76.7105 209.673Z" fill="#42E8E0"/>
<path d="M82.9457 211.621L78.4507 210.216L78.8385 211.966L83.3335 213.371L82.9457 211.621Z" fill="#42E8E0"/>
<path d="M93.5942 222.595L98.9664 224.275L99.3559 226.022L93.9815 224.342L93.5942 222.595Z" fill="#42E8E0"/>
<path d="M110.181 227.783L110.569 229.531L100.874 226.499L100.484 224.75L110.181 227.783Z" fill="#42E8E0"/>
<path d="M91.2081 221.865L86.7126 220.458L87.1004 222.208L91.5954 223.613L91.2081 221.865Z" fill="#42E8E0"/>
<path d="M70.1545 215.282L60.9607 212.405L61.348 214.153L70.5445 217.031L70.1545 215.282Z" fill="#42E8E0"/>
<path opacity="0.5" d="M78.5457 217.906L71.895 215.827L72.2845 217.574L78.9335 219.656L78.5457 217.906Z" fill="#42E8E0"/>
<path d="M84.7816 219.857L80.2866 218.452L80.6739 220.2L85.1694 221.607L84.7816 219.857Z" fill="#42E8E0"/>
</g>
<defs>
<filter id="filter0_f_2341_1442" x="6.72397" y="15.0049" width="236.051" height="296.06" filterUnits="userSpaceOnUse" color-interpolation-filters="sRGB">
<feFlood flood-opacity="0" result="BackgroundImageFix"/>
<feBlend mode="normal" in="SourceGraphic" in2="BackgroundImageFix" result="shape"/>
<feGaussianBlur stdDeviation="2.8" result="effect1_foregroundBlur_2341_1442"/>
</filter>
<linearGradient id="paint0_linear_2341_1442" x1="-61.9172" y1="279.034" x2="251.301" y2="177.026" gradientUnits="userSpaceOnUse">
<stop stop-color="#2D7DD5"/>
<stop offset="1" stop-color="#3584D7"/>
</linearGradient>
<linearGradient id="paint1_linear_2341_1442" x1="197.507" y1="53.7132" x2="12.5048" y2="94.9491" gradientUnits="userSpaceOnUse">
<stop stop-color="#94F4FF"/>
<stop offset="0.99" stop-color="#6173F3"/>
</linearGradient>
<linearGradient id="paint2_linear_2341_1442" x1="51.2389" y1="125.487" x2="57.7209" y2="124.042" gradientUnits="userSpaceOnUse">
<stop stop-color="#94F4FF"/>
<stop offset="0.99" stop-color="#95E9FD"/>
</linearGradient>
<linearGradient id="paint3_linear_2341_1442" x1="39.4701" y1="121.806" x2="45.9542" y2="120.36" gradientUnits="userSpaceOnUse">
<stop stop-color="#94F4FF"/>
<stop offset="0.99" stop-color="#95E9FD"/>
</linearGradient>
<linearGradient id="paint4_linear_2341_1442" x1="27.7013" y1="118.127" x2="34.1854" y2="116.682" gradientUnits="userSpaceOnUse">
<stop stop-color="#94F4FF"/>
<stop offset="0.99" stop-color="#95E9FD"/>
</linearGradient>
<radialGradient id="paint5_radial_2341_1442" cx="0" cy="0" r="1" gradientUnits="userSpaceOnUse" gradientTransform="translate(230.639 86.8131) rotate(-12.5655) scale(152.342 151.943)">
<stop offset="0.02" stop-color="#1D74FF"/>
<stop offset="0.12" stop-color="#2B4BDF"/>
<stop offset="0.27" stop-color="#2B21BA"/>
<stop offset="0.38" stop-color="#2C0AA5"/>
<stop offset="0.47" stop-color="#320399"/>
<stop offset="0.56" stop-color="#350094"/>
<stop offset="0.66" stop-color="#280074"/>
<stop offset="0.81" stop-color="#19004C"/>
<stop offset="0.93" stop-color="#0F0033"/>
<stop offset="1" stop-color="#0C002A"/>
</radialGradient>
<linearGradient id="paint6_linear_2341_1442" x1="11.5413" y1="-88.4662" x2="96.2479" y2="341.171" gradientUnits="userSpaceOnUse">
<stop stop-color="#2D7DD5"/>
<stop offset="1" stop-color="#3584D7"/>
</linearGradient>
<linearGradient id="paint7_linear_2341_1442" x1="197.754" y1="184.594" x2="208.45" y2="182.21" gradientUnits="userSpaceOnUse">
<stop stop-color="#94F4FF"/>
<stop offset="0.99" stop-color="#95E9FD"/>
</linearGradient>
<linearGradient id="paint8_linear_2341_1442" x1="179.401" y1="198.828" x2="190.098" y2="196.444" gradientUnits="userSpaceOnUse">
<stop stop-color="#94F4FF"/>
<stop offset="0.99" stop-color="#95E9FD"/>
</linearGradient>
</defs>
</svg>
