<svg width="184" height="223" viewBox="0 0 184 223" fill="none" xmlns="http://www.w3.org/2000/svg">
<g filter="url(#filter0_f_2341_1399)">
<path d="M129.435 188.741C128.869 190.021 127.377 191.018 125.112 191.405L125.094 191.408L65.8169 201.442C65.795 201.446 65.7751 201.45 65.7524 201.452C65.0646 201.565 64.3487 201.615 63.6209 201.605C62.0103 201.591 60.3406 201.295 58.793 200.777C57.0216 200.183 55.4069 199.3 54.2251 198.209C53.9652 197.969 53.7231 197.719 53.5071 197.461L13.6207 149.651C12.4447 148.241 12.1979 146.824 12.7332 145.649L53.9846 34.001L93.1898 48.5097L108.506 45.9181C112.857 45.1818 118.368 46.9624 120.815 49.8992L121.401 50.6007L131.483 62.6846L170.654 77.1807L129.585 188.335C129.582 188.343 129.579 188.355 129.576 188.363C129.538 188.493 129.495 188.618 129.436 188.742L129.435 188.741Z" fill="#003096"/>
<path d="M126.148 191.228L125.111 191.404L125.092 191.407L65.7501 201.45L64.7587 201.618C64.3786 201.682 63.9822 201.718 63.5757 201.723C62.0705 201.753 60.4074 201.405 58.7917 200.777C58.7588 200.764 58.7246 200.752 58.6895 200.737L115.631 46.6234C117.833 47.4973 119.933 48.8947 121.4 50.6015C121.435 50.6395 121.471 50.6808 121.504 50.7223L131.456 62.6496L170.676 77.1174L129.425 188.765C129.067 190.006 127.958 190.923 126.148 191.228Z" fill="#2968B7"/>
<path style="mix-blend-mode:lighten" d="M105.149 89.2054L63.5754 201.725C62.0701 201.754 60.407 201.406 58.7913 200.778C57.0199 200.184 55.4052 199.301 54.2234 198.21L95.7776 85.743L105.149 89.2054Z" fill="url(#paint0_linear_2341_1399)"/>
<path d="M105.986 90.0368L167.376 79.6461C171.144 79.0084 171.908 75.7442 169.081 72.3571L130.566 26.1926C127.74 22.8041 122.393 20.5746 118.626 21.2122L57.2355 31.6029C53.4679 32.2406 52.7044 35.5035 55.5322 38.8925L94.0465 85.0569C96.8729 88.4454 102.22 90.675 105.987 90.0373L105.986 90.0368Z" fill="url(#paint1_linear_2341_1399)"/>
<path d="M93.3748 107.972C90.9587 107.079 88.6273 105.553 87.0652 103.681L46.1905 54.6781L46.4752 54.4424L87.3499 103.445C90.1344 106.782 95.4135 108.989 99.1165 108.361L163.028 97.545L163.092 97.9092L99.1797 108.725C97.446 109.019 95.3813 108.713 93.3762 107.972L93.3748 107.972Z" fill="#2968B7"/>
<path d="M93.5025 107.627C91.0864 106.734 88.7545 105.21 87.1928 103.336L46.3181 54.3331L46.6029 54.0975L87.4776 103.1C90.2621 106.438 95.5412 108.644 99.2442 108.016L163.156 97.2L163.219 97.5642L99.3073 108.38C97.5737 108.674 95.5104 108.369 93.5038 107.628L93.5025 107.627Z" fill="black"/>
<path d="M64.8862 63.4729C64.4067 64.7707 64.7397 66.6879 65.6285 67.7538C66.5187 68.8203 67.6281 68.6321 68.1076 67.3342C68.5871 66.0364 68.2541 64.1192 67.3653 63.0533C66.4751 61.9869 65.3657 62.1751 64.8862 63.4729Z" fill="url(#paint2_linear_2341_1399)"/>
<path d="M59.7029 57.2598C59.2234 58.5576 59.5564 60.4748 60.4452 61.5407C61.3354 62.6072 62.4447 62.419 62.9242 61.1211C63.4038 59.8233 63.0708 57.9061 62.1819 56.8402C61.2917 55.7738 60.1824 55.962 59.7029 57.2598Z" fill="url(#paint3_linear_2341_1399)"/>
<path d="M54.5188 51.0463C54.0393 52.3442 54.3723 54.2614 55.2611 55.3273C56.1513 56.3937 57.2606 56.2055 57.7402 54.9077C58.2197 53.6099 57.8867 51.6926 56.9979 50.6267C56.1077 49.5603 54.9983 49.7485 54.5188 51.0463Z" fill="url(#paint4_linear_2341_1399)"/>
<path d="M77.7363 121.217L57.0948 176.106C56.4854 177.739 55.3458 178.443 54.1527 178.141L24.1894 142.925C23.3477 141.917 22.768 140.516 22.5058 139.056C22.2384 137.559 22.3057 136.004 22.7708 134.753L23.0554 133.983L43.4126 79.8671C44.3322 77.3994 46.4633 77.0496 48.1652 79.0914L76.3194 113.049C77.3196 114.247 77.9507 116.007 78.1143 117.754C78.2299 118.979 78.1156 120.203 77.7353 121.22L77.7363 121.217Z" fill="url(#paint5_radial_2341_1399)"/>
<path style="mix-blend-mode:lighten" opacity="0.5" d="M67.7139 102.665L27.0106 123.475L43.4134 79.8644C44.333 77.3966 46.4641 77.0468 48.166 79.0886L67.712 102.666L67.7139 102.665Z" fill="url(#paint6_linear_2341_1399)"/>
<path d="M117.78 182.599L113.546 183.316C112.457 183.5 111.929 182.683 112.371 181.488L134.719 121.001C135.16 119.808 136.401 118.691 137.492 118.507L141.726 117.791C142.815 117.606 143.343 118.424 142.901 119.618L120.553 180.105C120.112 181.298 118.871 182.415 117.78 182.599Z" fill="url(#paint7_linear_2341_1399)"/>
<path d="M102.595 183.903L98.3608 184.62C97.2714 184.804 96.7439 183.987 97.1851 182.792L119.534 122.305C119.974 121.112 121.215 119.995 122.306 119.811L126.54 119.095C127.631 118.91 128.157 119.728 127.716 120.922L105.367 181.409C104.927 182.602 103.686 183.719 102.595 183.903Z" fill="url(#paint8_linear_2341_1399)"/>
<path d="M87.4088 185.209L83.1748 185.925C82.0854 186.11 81.5579 185.292 81.9991 184.098L104.348 123.611C104.788 122.418 106.029 121.301 107.12 121.117L111.354 120.4C112.444 120.216 112.971 121.033 112.53 122.228L90.1812 182.715C89.7405 183.908 88.4996 185.025 87.4088 185.209Z" fill="#2968B7"/>
<path d="M142.9 119.617L120.551 180.104C120.111 181.297 118.871 182.415 117.78 182.599L113.546 183.316C112.879 183.428 112.422 183.165 112.27 182.669C112.42 182.69 112.585 182.689 112.768 182.658L117.002 181.941C118.092 181.757 119.332 180.639 119.773 179.447L142.122 118.96C142.293 118.497 142.318 118.092 142.22 117.778C142.963 117.887 143.266 118.622 142.899 119.616L142.9 119.617Z" fill="#003096"/>
<path d="M127.714 120.922L105.366 181.409C104.925 182.602 103.685 183.719 102.595 183.903L98.3607 184.62C97.6918 184.732 97.2336 184.468 97.0849 183.973C97.2333 183.997 97.401 183.994 97.5826 183.962L101.817 183.246C102.906 183.061 104.147 181.944 104.588 180.751L126.936 120.264C127.107 119.802 127.132 119.397 127.034 119.084C127.777 119.192 128.081 119.926 127.713 120.92L127.714 120.922Z" fill="#003096"/>
<path d="M111.85 120.39C111.947 120.703 111.922 121.11 111.751 121.571L89.4032 182.057C88.9619 183.251 87.7196 184.368 86.6316 184.553L82.7105 185.214L82.4637 185.882C82.6596 185.955 82.8991 185.972 83.1748 185.925L87.4089 185.209C88.4996 185.025 89.7392 183.907 90.1804 182.713L112.529 122.227C112.896 121.232 112.593 120.498 111.85 120.388L111.85 120.39Z" fill="#003096"/>
<path d="M66.3401 126.362L59.0343 117.604L58.626 118.705L65.9317 127.463L66.3401 126.362Z" fill="#42E8E0"/>
<path d="M57.9774 116.354L55.9972 113.981L55.5893 115.081L57.5689 117.455L57.9774 116.354Z" fill="#42E8E0"/>
<path opacity="0.5" d="M48.703 105.241L44.6542 100.386L44.2458 101.487L48.2964 106.341L48.703 105.241Z" fill="#42E8E0"/>
<path d="M52.3989 109.671L49.4697 106.159L49.0627 107.261L51.991 110.771L52.3989 109.671Z" fill="#42E8E0"/>
<path d="M55.1453 112.963L53.1657 110.589L52.7573 111.69L54.7374 114.063L55.1453 112.963Z" fill="#42E8E0"/>
<path d="M64.4238 131.547L57.1181 122.79L56.7097 123.891L64.0154 132.648L64.4238 131.547Z" fill="#42E8E0"/>
<path opacity="0.5" d="M56.0613 121.54L54.0817 119.166L53.6733 120.267L55.6534 122.64L56.0613 121.54Z" fill="#42E8E0"/>
<path d="M46.7867 110.427L42.7379 105.571L42.3295 106.673L46.3802 111.527L46.7867 110.427Z" fill="#42E8E0"/>
<path d="M50.4829 114.857L47.5537 111.345L47.1467 112.447L50.075 115.957L50.4829 114.857Z" fill="#42E8E0"/>
<path d="M53.2298 118.148L51.2497 115.775L50.8413 116.876L52.8214 119.249L53.2298 118.148Z" fill="#42E8E0"/>
<path d="M55.2021 127.976L57.5683 130.812L57.1613 131.914L54.7936 129.077L55.2021 127.976Z" fill="#42E8E0"/>
<path d="M62.5078 136.733L62.0999 137.833L57.8298 132.715L58.2368 131.613L62.5078 136.733Z" fill="#42E8E0"/>
<path d="M54.1451 126.726L52.1654 124.352L51.757 125.453L53.7371 127.826L54.1451 126.726Z" fill="#42E8E0"/>
<path opacity="0.5" d="M44.8707 115.613L40.8219 110.757L40.414 111.857L44.4642 116.713L44.8707 115.613Z" fill="#42E8E0"/>
<path d="M48.5668 120.043L45.6377 116.531L45.2307 117.633L48.1589 121.143L48.5668 120.043Z" fill="#42E8E0"/>
<path d="M51.3138 123.334L49.3336 120.961L48.9252 122.062L50.9054 124.435L51.3138 123.334Z" fill="#42E8E0"/>
<path d="M53.2858 133.162L55.652 135.998L55.2455 137.098L52.8779 134.262L53.2858 133.162Z" fill="#42E8E0"/>
<path d="M60.5915 141.919L60.1837 143.019L55.9136 137.901L56.3206 136.799L60.5915 141.919Z" fill="#42E8E0"/>
<path d="M52.2288 131.912L50.2492 129.538L49.8408 130.639L51.8209 133.011L52.2288 131.912Z" fill="#42E8E0"/>
<path d="M42.9554 120.797L38.9062 115.943L38.4982 117.043L42.5484 121.899L42.9554 120.797Z" fill="#42E8E0"/>
<path opacity="0.5" d="M46.6511 125.227L43.7214 121.717L43.3149 122.817L46.2427 126.329L46.6511 125.227Z" fill="#42E8E0"/>
<path d="M49.3975 128.52L47.4174 126.147L47.0095 127.247L48.9891 129.621L49.3975 128.52Z" fill="#42E8E0"/>
</g>
<defs>
<filter id="filter0_f_2341_1399" x="6.26411" y="14.9034" width="170.723" height="193.023" filterUnits="userSpaceOnUse" color-interpolation-filters="sRGB">
<feFlood flood-opacity="0" result="BackgroundImageFix"/>
<feBlend mode="normal" in="SourceGraphic" in2="BackgroundImageFix" result="shape"/>
<feGaussianBlur stdDeviation="3.1" result="effect1_foregroundBlur_2341_1399"/>
</filter>
<linearGradient id="paint0_linear_2341_1399" x1="-52.5772" y1="108.894" x2="156.516" y2="164.113" gradientUnits="userSpaceOnUse">
<stop stop-color="#2D7DD5"/>
<stop offset="1" stop-color="#3584D7"/>
</linearGradient>
<linearGradient id="paint1_linear_2341_1399" x1="170.669" y1="77.1877" x2="53.9429" y2="34.06" gradientUnits="userSpaceOnUse">
<stop stop-color="#94F4FF"/>
<stop offset="0.99" stop-color="#6173F3"/>
</linearGradient>
<linearGradient id="paint2_linear_2341_1399" x1="64.452" y1="64.648" x2="68.5418" y2="66.1591" gradientUnits="userSpaceOnUse">
<stop stop-color="#94F4FF"/>
<stop offset="0.99" stop-color="#95E9FD"/>
</linearGradient>
<linearGradient id="paint3_linear_2341_1399" x1="59.2687" y1="58.4349" x2="63.3598" y2="59.9465" gradientUnits="userSpaceOnUse">
<stop stop-color="#94F4FF"/>
<stop offset="0.99" stop-color="#95E9FD"/>
</linearGradient>
<linearGradient id="paint4_linear_2341_1399" x1="54.0841" y1="52.2229" x2="58.1752" y2="53.7344" gradientUnits="userSpaceOnUse">
<stop stop-color="#94F4FF"/>
<stop offset="0.99" stop-color="#95E9FD"/>
</linearGradient>
<radialGradient id="paint5_radial_2341_1399" cx="0" cy="0" r="1" gradientUnits="userSpaceOnUse" gradientTransform="translate(177.177 107.193) rotate(20.2781) scale(100.016 99.5515)">
<stop offset="0.02" stop-color="#1D74FF"/>
<stop offset="0.12" stop-color="#2B4BDF"/>
<stop offset="0.27" stop-color="#2B21BA"/>
<stop offset="0.38" stop-color="#2C0AA5"/>
<stop offset="0.47" stop-color="#320399"/>
<stop offset="0.56" stop-color="#350094"/>
<stop offset="0.66" stop-color="#280074"/>
<stop offset="0.81" stop-color="#19004C"/>
<stop offset="0.93" stop-color="#0F0033"/>
<stop offset="1" stop-color="#0C002A"/>
</radialGradient>
<linearGradient id="paint6_linear_2341_1399" x1="118.636" y1="-67.2271" x2="12.6095" y2="199.376" gradientUnits="userSpaceOnUse">
<stop stop-color="#2D7DD5"/>
<stop offset="1" stop-color="#3584D7"/>
</linearGradient>
<linearGradient id="paint7_linear_2341_1399" x1="124.262" y1="149.307" x2="131.011" y2="151.801" gradientUnits="userSpaceOnUse">
<stop stop-color="#94F4FF"/>
<stop offset="0.99" stop-color="#95E9FD"/>
</linearGradient>
<linearGradient id="paint8_linear_2341_1399" x1="109.075" y1="150.611" x2="115.825" y2="153.105" gradientUnits="userSpaceOnUse">
<stop stop-color="#94F4FF"/>
<stop offset="0.99" stop-color="#95E9FD"/>
</linearGradient>
</defs>
</svg>
