<svg width="48" height="49" viewBox="0 0 48 49" fill="none" xmlns="http://www.w3.org/2000/svg">
<path fill-rule="evenodd" clip-rule="evenodd" d="M38.0002 24.7886C38.0002 32.5206 31.7322 38.7886 24.0002 38.7886C16.2682 38.7886 10.0002 32.5206 10.0002 24.7886C10.0002 17.0566 16.2682 10.7886 24.0002 10.7886C31.7322 10.7886 38.0002 17.0566 38.0002 24.7886ZM24.5019 21.124C23.1402 21.6904 20.4187 22.8627 16.3374 24.6408C15.6747 24.9044 15.3275 25.1622 15.2959 25.4143C15.2425 25.8403 15.776 26.0081 16.5026 26.2366C16.6014 26.2677 16.7038 26.2999 16.8088 26.334C17.5236 26.5663 18.4852 26.8382 18.985 26.849C19.4385 26.8588 19.9445 26.6718 20.5033 26.2882C24.3166 23.7141 26.285 22.413 26.4086 22.385C26.4957 22.3652 26.6166 22.3403 26.6984 22.4131C26.7803 22.4858 26.7722 22.6236 26.7636 22.6606C26.7107 22.8859 24.6163 24.833 23.5325 25.8407C23.1946 26.1548 22.955 26.3776 22.906 26.4285C22.7962 26.5425 22.6843 26.6503 22.5768 26.754C21.9128 27.3941 21.4148 27.8742 22.6044 28.6582C23.1761 29.0349 23.6336 29.3465 24.09 29.6573C24.5884 29.9967 25.0855 30.3352 25.7287 30.7569C25.8926 30.8643 26.0491 30.9759 26.2016 31.0845C26.7816 31.4981 27.3027 31.8696 27.9466 31.8103C28.3206 31.7759 28.7071 31.4241 28.9033 30.375C29.3671 27.8956 30.2788 22.5235 30.4895 20.3097C30.5079 20.1158 30.4847 19.8676 30.466 19.7586C30.4474 19.6496 30.4084 19.4944 30.2668 19.3795C30.0991 19.2434 29.8401 19.2147 29.7243 19.2167C29.1977 19.226 28.3898 19.5069 24.5019 21.124Z" fill="#323232"/>
</svg>
