<svg width="48" height="49" viewBox="0 0 48 49" fill="none" xmlns="http://www.w3.org/2000/svg">
<path d="M37.7213 19.1887C37.7213 19.1887 37.4479 17.2582 36.6057 16.4106C35.5393 15.2949 34.3471 15.2895 33.8002 15.2239C29.8846 14.9395 24.0057 14.9395 24.0057 14.9395H23.9947C23.9947 14.9395 18.1158 14.9395 14.2002 15.2239C13.6533 15.2895 12.4611 15.2949 11.3947 16.4106C10.5525 17.2582 10.2846 19.1887 10.2846 19.1887C10.2846 19.1887 10.0002 21.4582 10.0002 23.7223V25.8442C10.0002 28.1082 10.2791 30.3778 10.2791 30.3778C10.2791 30.3778 10.5525 32.3082 11.3893 33.1559C12.4557 34.2715 13.8557 34.2332 14.4791 34.3535C16.7213 34.5668 24.0002 34.6324 24.0002 34.6324C24.0002 34.6324 29.8846 34.6215 33.8002 34.3426C34.3471 34.277 35.5393 34.2715 36.6057 33.1559C37.4479 32.3082 37.7213 30.3778 37.7213 30.3778C37.7213 30.3778 38.0002 28.1137 38.0002 25.8442V23.7223C38.0002 21.4582 37.7213 19.1887 37.7213 19.1887ZM21.1072 28.4199V20.5504L28.6705 24.4989L21.1072 28.4199Z" fill="#323232"/>
</svg>
